<svg width="35" height="31" viewBox="0 0 35 31" fill="none" xmlns="http://www.w3.org/2000/svg">
<path d="M18.0181 23.1444H8.4339L5.95952 30.289C5.93096 30.5246 5.78189 30.6425 5.51231 30.6425H1.01345C0.713529 30.6425 0.609091 30.4952 0.70014 30.2006L9.38187 4.41518C9.62706 3.63006 9.74813 2.81148 9.74071 1.989C9.73586 1.95269 9.73944 1.91575 9.75119 1.88105C9.76293 1.84635 9.78251 1.81483 9.80842 1.78892C9.83432 1.76302 9.86585 1.74343 9.90055 1.73169C9.93525 1.71995 9.97219 1.71636 10.0085 1.72121H16.3069C16.489 1.72121 16.5934 1.7962 16.6229 1.9408L26.3383 30.2461C26.4293 30.5139 26.3544 30.6425 26.1134 30.6425H21.0762C20.9831 30.648 20.8903 30.6255 20.8101 30.5777C20.7299 30.53 20.6659 30.4592 20.6263 30.3747L18.0181 23.1444ZM9.50505 18.3242H16.971C16.7916 17.9305 13.4335 7.09575 13.1925 6.18259H13.1497L9.50505 18.3242Z" fill="#FF9A00"/>
<path d="M31.7075 7.07701C31.2852 7.09506 30.8636 7.02829 30.4676 6.88064C30.0716 6.733 29.7092 6.50748 29.4018 6.2174C29.101 5.91158 28.8671 5.54653 28.715 5.14545C28.5628 4.74436 28.4958 4.31602 28.5181 3.88763C28.4982 3.45381 28.5686 3.02057 28.7248 2.61538C28.8811 2.21019 29.1198 1.84187 29.4259 1.53377C29.7359 1.23878 30.1016 1.00866 30.5017 0.85691C30.9017 0.70516 31.3281 0.634835 31.7557 0.650061C32.1841 0.627749 32.6124 0.694791 33.0135 0.846925C33.4146 0.99906 33.7796 1.23296 34.0854 1.53377C34.3782 1.84914 34.605 2.2198 34.7526 2.624C34.9003 3.02821 34.9657 3.45782 34.945 3.88763C34.9674 4.31602 34.9003 4.74436 34.7482 5.14545C34.5961 5.54653 34.3621 5.91158 34.0613 6.2174C33.746 6.51016 33.3753 6.73699 32.9711 6.8846C32.5669 7.03221 32.1373 7.09763 31.7075 7.07701Z" fill="#FF9A00"/>
<path d="M29.0537 30.2408V9.57818C29.0465 9.52939 29.0508 9.47959 29.0663 9.43276C29.0817 9.38593 29.108 9.34337 29.1428 9.30849C29.1777 9.27362 29.2203 9.24739 29.2671 9.23191C29.3139 9.21643 29.3637 9.21213 29.4125 9.21935H34.0506C34.0993 9.2127 34.1489 9.2174 34.1955 9.23309C34.242 9.24877 34.2843 9.27501 34.3191 9.30975C34.3538 9.3445 34.3801 9.38681 34.3957 9.43337C34.4114 9.47994 34.4161 9.5295 34.4095 9.57818V30.2837C34.4167 30.3325 34.4124 30.3823 34.3969 30.4291C34.3814 30.4759 34.3552 30.5185 34.3203 30.5534C34.2855 30.5882 34.2429 30.6145 34.1961 30.6299C34.1492 30.6454 34.0994 30.6497 34.0506 30.6425H29.4554C29.4009 30.6501 29.3453 30.6449 29.2932 30.6274C29.241 30.6098 29.1936 30.5805 29.1546 30.5416C29.1157 30.5026 29.0863 30.4552 29.0688 30.403C29.0513 30.3509 29.0461 30.2953 29.0537 30.2408Z" fill="#FF9A00"/>
</svg>
