<svg width="47" height="46" viewBox="0 0 47 46" fill="none" xmlns="http://www.w3.org/2000/svg">
<path d="M42.8606 43.1667C42.1667 41.9969 41.6038 40.1561 41.1708 37.6424L35.3485 0.901034C35.2016 -0.0248496 33.9907 -0.281817 33.4798 0.504084L31.314 3.83966C30.9761 4.3606 30.8431 4.98752 30.9401 5.60044L34.2087 26.1899L34.7366 29.2595L34.9316 30.6243L35.4875 33.9579L36.1014 37.6434C36.4044 39.1612 36.5564 40.2871 36.5564 41.023C36.5564 41.5429 36.4914 42.0419 36.3614 42.5178C36.1874 43.3417 35.7865 44.0126 35.1586 44.5336C34.5306 45.0535 33.5878 45.4214 32.3319 45.6374L32.2669 45.9624H46.4352L46.5001 45.6374C44.7664 45.1615 43.5535 44.3376 42.8606 43.1677V43.1667Z" fill="url(#paint0_linear_999_30079)"/>
<path d="M29.5884 36.2727C29.2224 35.7158 28.9235 34.8369 28.6945 33.6411L25.3919 15.9273H20.7145L20.6805 16.0813C21.2064 16.1862 21.5964 16.3202 21.8494 16.4852C22.1023 16.6502 22.2273 16.8682 22.2273 17.1361C22.2273 17.2591 22.2163 17.3621 22.1933 17.4451C22.1693 17.5901 22.0553 17.87 21.8484 18.281L17.4039 25.1031C17.4039 25.1031 16.2881 28.0937 20.3845 28.2457C24.756 28.4067 25.2969 29.8505 25.3469 30.0305L25.3499 30.0405V30.0485L25.3899 30.2955L25.4909 30.8414H25.4919L26.0098 33.6411C26.1688 34.363 26.2498 34.9009 26.2498 35.2508C26.2498 35.4978 26.2148 35.7368 26.1468 35.9628C26.0548 36.3547 25.8429 36.6747 25.5099 36.9236C25.1779 37.1706 24.679 37.3466 24.0141 37.4496L23.9791 37.6046H31.4771L31.5121 37.4496C30.5953 37.2216 29.9523 36.8297 29.5854 36.2727H29.5884ZM17.9838 25.4791L23.0202 17.753L24.94 27.8178C16.1211 28.9966 17.9838 25.4791 17.9838 25.4791Z" fill="#121212"/>
<path d="M14.6752 32V31.993C14.6732 31.948 14.6702 31.904 14.6662 31.86C14.6652 31.848 14.6642 31.835 14.6632 31.8231C14.6632 31.8171 14.6622 31.8101 14.6612 31.8041C14.6582 31.7741 14.6552 31.7441 14.6512 31.7141C14.6452 31.6671 14.6372 31.6201 14.6292 31.5741C14.6222 31.5351 14.6152 31.4961 14.6072 31.4581C14.6032 31.4391 14.5982 31.4201 14.5932 31.4011C14.5932 31.3981 14.5922 31.3941 14.5912 31.3911C14.5842 31.3601 14.5762 31.3291 14.5672 31.2981C14.5672 31.2941 14.5652 31.2901 14.5642 31.2861C14.5542 31.2511 14.5442 31.2161 14.5332 31.1821C14.5322 31.1781 14.5312 31.1731 14.5292 31.1691C14.5282 31.1671 14.5272 31.1641 14.5272 31.1621C14.5172 31.1331 14.5082 31.1051 14.4972 31.0771C14.4922 31.0611 14.4862 31.0461 14.4802 31.0302C14.4652 31.0302 14.4512 31.0322 14.4362 31.0332C14.3953 31.0362 14.3543 31.0391 14.3133 31.0441C14.2843 31.0471 14.2553 31.0511 14.2253 31.0551C14.2223 31.0551 14.2183 31.0551 14.2153 31.0551C14.1873 31.0591 14.1593 31.0641 14.1303 31.0691C14.0873 31.0761 14.0453 31.0851 14.0023 31.0941C13.9693 31.1011 13.9363 31.1091 13.9043 31.1171C13.8693 31.1261 13.8343 31.1351 13.8003 31.1451C13.7983 31.1451 13.7973 31.1461 13.7963 31.1461C13.7623 31.1561 13.7283 31.1661 13.6953 31.1771C13.6603 31.1891 13.6264 31.2001 13.5924 31.2131C13.5234 31.2381 13.4564 31.2651 13.3894 31.2941C13.3224 31.3231 13.2564 31.3541 13.1914 31.3891C13.1274 31.4221 13.0634 31.4581 13.0004 31.4961C12.9664 31.5171 12.9324 31.5381 12.8994 31.5601C12.8714 31.5771 12.8434 31.5961 12.8165 31.6151C12.7565 31.6571 12.6975 31.7001 12.6395 31.7461C12.5825 31.7911 12.5265 31.8381 12.4715 31.887C12.4175 31.936 12.3645 31.987 12.3135 32.039C12.2885 32.065 12.2625 32.091 12.2385 32.118C12.2135 32.145 12.1895 32.172 12.1655 32.2C12.0475 32.337 11.9406 32.485 11.8476 32.6389C11.8206 32.6839 11.7946 32.7299 11.7706 32.7769C11.7446 32.8259 11.7196 32.8759 11.6966 32.9259C11.7456 32.7459 11.7936 32.551 11.8436 32.372C11.7556 32.459 11.6726 32.55 11.5926 32.6449C11.5536 32.6929 11.5146 32.7409 11.4766 32.7909C11.4576 32.8159 11.4396 32.8399 11.4206 32.8659C11.3846 32.9159 11.3486 32.9669 11.3146 33.0189C11.1207 33.3139 10.9647 33.6338 10.8567 33.9678C10.8427 34.0078 10.8307 34.0488 10.8187 34.0898C10.8137 34.1068 10.8097 34.1238 10.8047 34.1398C10.7927 34.1848 10.7807 34.2298 10.7707 34.2747C10.7007 34.5797 10.6707 34.8917 10.6877 35.2026C10.6647 35.0356 10.5787 34.8727 10.4747 34.7397C10.4797 34.7637 10.4847 34.7877 10.4887 34.8117C10.4967 34.8577 10.5007 34.9047 10.5037 34.9507C10.5317 35.4476 10.2838 35.9405 10.0558 36.3975C10.0028 36.5045 9.94281 36.6084 9.88182 36.7124C9.85183 36.7644 9.82183 36.8164 9.79183 36.8674C9.77683 36.8934 9.76284 36.9204 9.74784 36.9464C9.71984 36.9974 9.69285 37.0484 9.66685 37.1004C9.65485 37.1264 9.64285 37.1524 9.63085 37.1794C9.59586 37.2574 9.56786 37.3344 9.54786 37.4133C9.52287 37.5123 9.51087 37.6113 9.51887 37.7123C9.51987 37.7273 9.52087 37.7423 9.52387 37.7573C9.52387 37.7613 9.52387 37.7663 9.52387 37.7703C9.53187 37.8283 9.54686 37.8863 9.56886 37.9443L9.59086 37.9583L9.42388 38.2142C9.38488 38.1963 9.34289 38.1823 9.29989 38.1713C9.12292 38.1263 8.93594 38.1993 8.83795 38.3542C8.40401 39.0371 7.22415 40.8819 6.70222 41.5808C6.1083 42.3777 5.54737 43.0136 5.01743 43.4906C3.91257 44.4885 2.42776 45.2034 0.565992 45.6353L0.5 45.9603H11.2896L11.3546 45.6353C10.3568 45.4193 9.60986 45.1384 9.11192 44.7904C8.61298 44.4445 8.36501 43.9455 8.36501 43.2956C8.36501 42.9667 8.445 42.5577 8.60498 42.0688C8.83995 41.3499 9.2479 40.459 9.82883 39.3941C9.89982 39.2641 9.93281 39.1241 9.93281 38.9882C9.93281 38.8622 9.90482 38.7392 9.85182 38.6282L10.0808 38.2782L10.1058 38.2942C10.1998 38.2892 10.2868 38.2692 10.3678 38.2382C10.3878 38.2302 10.4078 38.2222 10.4278 38.2132C10.4388 38.2082 10.4488 38.2022 10.4597 38.1973C10.4787 38.1873 10.4987 38.1763 10.5177 38.1653C10.5407 38.1513 10.5647 38.1353 10.5867 38.1193C10.6247 38.0923 10.6617 38.0633 10.6967 38.0323C10.7377 37.9963 10.7777 37.9573 10.8167 37.9163C10.8357 37.8953 10.8557 37.8733 10.8757 37.8513C10.9057 37.8163 10.9357 37.7813 10.9657 37.7443C10.9997 37.7023 11.0337 37.6583 11.0687 37.6133C11.1407 37.5193 11.2117 37.4223 11.2856 37.3294C11.3086 37.3004 11.3316 37.2724 11.3546 37.2444C11.4246 37.1604 11.4956 37.0744 11.5676 36.9904C11.6406 36.9064 11.7156 36.8234 11.7936 36.7444C12.0535 36.4805 12.3455 36.2625 12.7015 36.1925C12.5555 36.1555 12.3935 36.1405 12.2465 36.1705C12.2295 36.1735 12.2135 36.1775 12.1975 36.1825C12.1965 36.1825 12.1945 36.1835 12.1935 36.1835H12.1915C12.2525 36.1605 12.3125 36.1355 12.3725 36.1095C12.4615 36.0695 12.5485 36.0255 12.6345 35.9775C13.4004 35.5466 14.0003 34.8067 14.3163 33.9848C14.2073 34.0728 14.0913 34.1648 13.9793 34.2537C13.9423 34.2837 13.9053 34.3127 13.8693 34.3417C13.8993 34.3077 13.9283 34.2737 13.9563 34.2387C13.9633 34.2297 13.9703 34.2208 13.9773 34.2118C13.9993 34.1848 14.0193 34.1578 14.0393 34.1298C14.0473 34.1208 14.0533 34.1118 14.0603 34.1028C14.0853 34.0678 14.1093 34.0318 14.1343 33.9948C14.1353 33.9928 14.1373 33.9898 14.1383 33.9878C14.1633 33.9488 14.1883 33.9088 14.2113 33.8678C14.2293 33.8388 14.2463 33.8098 14.2613 33.7798C14.2753 33.7568 14.2873 33.7328 14.2993 33.7098C14.3163 33.6768 14.3323 33.6438 14.3483 33.6108L14.3513 33.6048C14.3513 33.6048 14.3543 33.5988 14.3553 33.5958C14.3703 33.5638 14.3853 33.5308 14.3993 33.4968C14.4053 33.4838 14.4103 33.4718 14.4153 33.4588C14.4323 33.4189 14.4482 33.3789 14.4622 33.3389C14.4662 33.3279 14.4702 33.3179 14.4742 33.3069C14.4782 33.2969 14.4812 33.2879 14.4842 33.2779C14.4962 33.2439 14.5072 33.2099 14.5182 33.1759C14.5312 33.1369 14.5422 33.0969 14.5532 33.0569C14.5592 33.0349 14.5652 33.0139 14.5702 32.9929C14.5742 32.9769 14.5782 32.9599 14.5822 32.9439C14.5872 32.9249 14.5912 32.9059 14.5962 32.8859C14.6072 32.8359 14.6172 32.7869 14.6252 32.7369L14.6282 32.7189C14.6412 32.6449 14.6512 32.57 14.6592 32.494C14.6612 32.476 14.6632 32.457 14.6652 32.438C14.6672 32.419 14.6682 32.4 14.6692 32.381C14.6712 32.351 14.6732 32.321 14.6752 32.29V32.287C14.6772 32.244 14.6782 32.2 14.6782 32.156V32.128C14.6782 32.085 14.6772 32.042 14.6752 31.999V32ZM12.9984 31.7651C12.6375 32.078 12.3135 32.432 12.0336 32.8209C12.2715 32.404 12.6065 32.041 12.9984 31.7651ZM11.2407 33.5728C11.1207 33.8788 11.0057 34.2158 10.9117 34.5307C10.9097 34.5347 10.9087 34.5387 10.9077 34.5427C10.9567 34.2028 11.0707 33.8708 11.2407 33.5728ZM10.4148 36.2015C10.4148 36.2015 10.4128 36.2075 10.4108 36.2105C10.3468 36.3845 10.2408 36.5395 10.1168 36.6744C10.2028 36.5065 10.3058 36.3555 10.4148 36.2015ZM11.8926 35.4086C12.2745 34.7967 12.8554 33.8668 13.2294 33.2609C12.8295 34.0028 12.3815 34.7207 11.8926 35.4086ZM11.3036 36.0905C11.0427 36.5065 10.7707 36.9184 10.4897 37.3244C10.3858 37.4743 10.2818 37.6223 10.1768 37.7683C10.1558 37.7993 10.1328 37.8303 10.1108 37.8613C10.0398 37.9603 9.96781 38.0593 9.89482 38.1573L9.78683 38.0873C9.84783 37.9813 9.90982 37.8753 9.97181 37.7703C10.3278 37.1664 10.7147 36.5415 11.1097 35.9635C11.4946 35.4026 12.5135 33.8938 12.9064 33.3119C13.3084 32.7249 13.7073 32.135 14.1113 31.5491L14.1313 31.5621C13.2714 32.9609 12.1745 34.6877 11.3036 36.0905Z" fill="#F051A3"/>
<path d="M14.6752 32V31.993C14.6732 31.948 14.6702 31.904 14.6662 31.86C14.6652 31.848 14.6642 31.835 14.6632 31.8231C14.6632 31.8171 14.6622 31.8101 14.6612 31.8041C14.6582 31.7741 14.6552 31.7441 14.6512 31.7141C14.6452 31.6671 14.6372 31.6201 14.6292 31.5741C14.6222 31.5351 14.6152 31.4961 14.6072 31.4581C14.6032 31.4391 14.5982 31.4201 14.5932 31.4011C14.5932 31.3981 14.5922 31.3941 14.5912 31.3911C14.5842 31.3601 14.5762 31.3291 14.5672 31.2981C14.5672 31.2941 14.5652 31.2901 14.5642 31.2861C14.5542 31.2511 14.5442 31.2161 14.5332 31.1821C14.5322 31.1781 14.5312 31.1731 14.5292 31.1691C14.5282 31.1671 14.5272 31.1641 14.5272 31.1621C14.5172 31.1331 14.5082 31.1051 14.4972 31.0771C14.4922 31.0611 14.4862 31.0461 14.4802 31.0302C14.4652 31.0302 14.4512 31.0322 14.4362 31.0332C14.3953 31.0362 14.3543 31.0391 14.3133 31.0441C14.2843 31.0471 14.2553 31.0511 14.2253 31.0551C14.2223 31.0551 14.2183 31.0551 14.2153 31.0551C14.1873 31.0591 14.1593 31.0641 14.1303 31.0691C14.0873 31.0761 14.0453 31.0851 14.0023 31.0941C13.9693 31.1011 13.9363 31.1091 13.9043 31.1171C13.8693 31.1261 13.8343 31.1351 13.8003 31.1451C13.7983 31.1451 13.7973 31.1461 13.7963 31.1461C13.7623 31.1561 13.7283 31.1661 13.6953 31.1771C13.6603 31.1891 13.6264 31.2001 13.5924 31.2131C13.5234 31.2381 13.4564 31.2651 13.3894 31.2941C13.3224 31.3231 13.2564 31.3541 13.1914 31.3891C13.1274 31.4221 13.0634 31.4581 13.0004 31.4961C12.9664 31.5171 12.9324 31.5381 12.8994 31.5601C12.8714 31.5771 12.8434 31.5961 12.8165 31.6151C12.7565 31.6571 12.6975 31.7001 12.6395 31.7461C12.5825 31.7911 12.5265 31.8381 12.4715 31.887C12.4175 31.936 12.3645 31.987 12.3135 32.039C12.2885 32.065 12.2625 32.091 12.2385 32.118C12.2135 32.145 12.1895 32.172 12.1655 32.2C12.0475 32.337 11.9406 32.485 11.8476 32.6389C11.8206 32.6839 11.7946 32.7299 11.7706 32.7769C11.7446 32.8259 11.7196 32.8759 11.6966 32.9259C11.7456 32.7459 11.7936 32.551 11.8436 32.372C11.7556 32.459 11.6726 32.55 11.5926 32.6449C11.5536 32.6929 11.5146 32.7409 11.4766 32.7909C11.4576 32.8159 11.4396 32.8399 11.4206 32.8659C11.3846 32.9159 11.3486 32.9669 11.3146 33.0189C11.1207 33.3139 10.9647 33.6338 10.8567 33.9678C10.8427 34.0078 10.8307 34.0488 10.8187 34.0898C10.8137 34.1068 10.8097 34.1238 10.8047 34.1398C10.7927 34.1848 10.7807 34.2298 10.7707 34.2747C10.7007 34.5797 10.6707 34.8917 10.6877 35.2026C10.6647 35.0356 10.5787 34.8727 10.4747 34.7397C10.4797 34.7637 10.4847 34.7877 10.4887 34.8117C10.4967 34.8577 10.5007 34.9047 10.5037 34.9507C10.5317 35.4476 10.2838 35.9405 10.0558 36.3975C10.0028 36.5045 9.94281 36.6084 9.88182 36.7124C9.85183 36.7644 9.82183 36.8164 9.79183 36.8674C9.77683 36.8934 9.76284 36.9204 9.74784 36.9464C9.71984 36.9974 9.69285 37.0484 9.66685 37.1004C9.65485 37.1264 9.64285 37.1524 9.63085 37.1794C9.59586 37.2574 9.56786 37.3344 9.54786 37.4133C9.52287 37.5123 9.51087 37.6113 9.51887 37.7123C9.51987 37.7273 9.52087 37.7423 9.52387 37.7573C9.52387 37.7613 9.52387 37.7663 9.52387 37.7703C9.53187 37.8283 9.54686 37.8863 9.56886 37.9443L9.59086 37.9583L9.42388 38.2142C9.38488 38.1963 9.34289 38.1823 9.29989 38.1713C9.12292 38.1263 8.93594 38.1993 8.83795 38.3542C8.40401 39.0371 7.22415 40.8819 6.70222 41.5808C6.1083 42.3777 5.54737 43.0136 5.01743 43.4906C3.91257 44.4885 2.42776 45.2034 0.565992 45.6353L0.5 45.9603H11.2896L11.3546 45.6353C10.3568 45.4193 9.60986 45.1384 9.11192 44.7904C8.61298 44.4445 8.36501 43.9455 8.36501 43.2956C8.36501 42.9667 8.445 42.5577 8.60498 42.0688C8.83995 41.3499 9.2479 40.459 9.82883 39.3941C9.89982 39.2641 9.93281 39.1241 9.93281 38.9882C9.93281 38.8622 9.90482 38.7392 9.85182 38.6282L10.0808 38.2782L10.1058 38.2942C10.1998 38.2892 10.2868 38.2692 10.3678 38.2382C10.3878 38.2302 10.4078 38.2222 10.4278 38.2132C10.4388 38.2082 10.4488 38.2022 10.4597 38.1973C10.4787 38.1873 10.4987 38.1763 10.5177 38.1653C10.5407 38.1513 10.5647 38.1353 10.5867 38.1193C10.6247 38.0923 10.6617 38.0633 10.6967 38.0323C10.7377 37.9963 10.7777 37.9573 10.8167 37.9163C10.8357 37.8953 10.8557 37.8733 10.8757 37.8513C10.9057 37.8163 10.9357 37.7813 10.9657 37.7443C10.9997 37.7023 11.0337 37.6583 11.0687 37.6133C11.1407 37.5193 11.2117 37.4223 11.2856 37.3294C11.3086 37.3004 11.3316 37.2724 11.3546 37.2444C11.4246 37.1604 11.4956 37.0744 11.5676 36.9904C11.6406 36.9064 11.7156 36.8234 11.7936 36.7444C12.0535 36.4805 12.3455 36.2625 12.7015 36.1925C12.5555 36.1555 12.3935 36.1405 12.2465 36.1705C12.2295 36.1735 12.2135 36.1775 12.1975 36.1825C12.1965 36.1825 12.1945 36.1835 12.1935 36.1835H12.1915C12.2525 36.1605 12.3125 36.1355 12.3725 36.1095C12.4615 36.0695 12.5485 36.0255 12.6345 35.9775C13.4004 35.5466 14.0003 34.8067 14.3163 33.9848C14.2073 34.0728 14.0913 34.1648 13.9793 34.2537C13.9423 34.2837 13.9053 34.3127 13.8693 34.3417C13.8993 34.3077 13.9283 34.2737 13.9563 34.2387C13.9633 34.2297 13.9703 34.2208 13.9773 34.2118C13.9993 34.1848 14.0193 34.1578 14.0393 34.1298C14.0473 34.1208 14.0533 34.1118 14.0603 34.1028C14.0853 34.0678 14.1093 34.0318 14.1343 33.9948C14.1353 33.9928 14.1373 33.9898 14.1383 33.9878C14.1633 33.9488 14.1883 33.9088 14.2113 33.8678C14.2293 33.8388 14.2463 33.8098 14.2613 33.7798C14.2753 33.7568 14.2873 33.7328 14.2993 33.7098C14.3163 33.6768 14.3323 33.6438 14.3483 33.6108L14.3513 33.6048C14.3513 33.6048 14.3543 33.5988 14.3553 33.5958C14.3703 33.5638 14.3853 33.5308 14.3993 33.4968C14.4053 33.4838 14.4103 33.4718 14.4153 33.4588C14.4323 33.4189 14.4482 33.3789 14.4622 33.3389C14.4662 33.3279 14.4702 33.3179 14.4742 33.3069C14.4782 33.2969 14.4812 33.2879 14.4842 33.2779C14.4962 33.2439 14.5072 33.2099 14.5182 33.1759C14.5312 33.1369 14.5422 33.0969 14.5532 33.0569C14.5592 33.0349 14.5652 33.0139 14.5702 32.9929C14.5742 32.9769 14.5782 32.9599 14.5822 32.9439C14.5872 32.9249 14.5912 32.9059 14.5962 32.8859C14.6072 32.8359 14.6172 32.7869 14.6252 32.7369L14.6282 32.7189C14.6412 32.6449 14.6512 32.57 14.6592 32.494C14.6612 32.476 14.6632 32.457 14.6652 32.438C14.6672 32.419 14.6682 32.4 14.6692 32.381C14.6712 32.351 14.6732 32.321 14.6752 32.29V32.287C14.6772 32.244 14.6782 32.2 14.6782 32.156V32.128C14.6782 32.085 14.6772 32.042 14.6752 31.999V32ZM12.9984 31.7651C12.6375 32.078 12.3135 32.432 12.0336 32.8209C12.2715 32.404 12.6065 32.041 12.9984 31.7651ZM11.2407 33.5728C11.1207 33.8788 11.0057 34.2158 10.9117 34.5307C10.9097 34.5347 10.9087 34.5387 10.9077 34.5427C10.9567 34.2028 11.0707 33.8708 11.2407 33.5728ZM10.4148 36.2015C10.4148 36.2015 10.4128 36.2075 10.4108 36.2105C10.3468 36.3845 10.2408 36.5395 10.1168 36.6744C10.2028 36.5065 10.3058 36.3555 10.4148 36.2015ZM11.8926 35.4086C12.2745 34.7967 12.8554 33.8668 13.2294 33.2609C12.8295 34.0028 12.3815 34.7207 11.8926 35.4086ZM11.3036 36.0905C11.0427 36.5065 10.7707 36.9184 10.4897 37.3244C10.3858 37.4743 10.2818 37.6223 10.1768 37.7683C10.1558 37.7993 10.1328 37.8303 10.1108 37.8613C10.0398 37.9603 9.96781 38.0593 9.89482 38.1573L9.78683 38.0873C9.84783 37.9813 9.90982 37.8753 9.97181 37.7703C10.3278 37.1664 10.7147 36.5415 11.1097 35.9635C11.4946 35.4026 12.5135 33.8938 12.9064 33.3119C13.3084 32.7249 13.7073 32.135 14.1113 31.5491L14.1313 31.5621C13.2714 32.9609 12.1745 34.6877 11.3036 36.0905Z" fill="url(#paint1_linear_999_30079)"/>
<defs>
<linearGradient id="paint0_linear_999_30079" x1="31.1956" y1="1.62879" x2="73.5699" y2="12.1631" gradientUnits="userSpaceOnUse">
<stop offset="0.161582" stop-color="#F051A3"/>
<stop offset="0.539604" stop-color="#2067F4"/>
<stop offset="1" stop-color="#4CBAFF" stop-opacity="0"/>
</linearGradient>
<linearGradient id="paint1_linear_999_30079" x1="10.1925" y1="31.234" x2="21.4212" y2="51.729" gradientUnits="userSpaceOnUse">
<stop offset="0.161582" stop-color="#F051A3"/>
<stop offset="0.539604" stop-color="#2067F4"/>
<stop offset="1" stop-color="#4CBAFF" stop-opacity="0"/>
</linearGradient>
</defs>
</svg>
