<svg width="40" height="40" viewBox="0 0 40 40" fill="none" xmlns="http://www.w3.org/2000/svg">
<g clip-path="url(#clip0_1456_1946)">
<path d="M25.0654 22.3268C24.3726 21.6994 23.4184 21.3987 22.1765 21.3987H14.9543V28.6928H22.1765C23.4183 28.6928 24.3857 28.3726 25.0654 27.7255C25.7517 27.0849 26.0981 26.1699 26.0981 24.9934C26.0981 23.8366 25.7583 22.9542 25.0654 22.3268Z" fill="#5E3B7F"/>
<path d="M24.0718 17.6275C24.7254 17.0654 25.0521 16.268 25.0521 15.2222C25.0521 14.0457 24.758 13.2157 24.1698 12.7386C23.5816 12.2614 22.7319 12.0197 21.6207 12.0197H14.9541V18.4641H21.6207C22.6012 18.4641 23.4182 18.1896 24.0718 17.6275Z" fill="#5E3B7F"/>
<path d="M33.3334 0H6.66664C3 0 0 3 0 6.66664V33.3333C0 37 3 40 6.66664 40H33.3333C37 40 40 37 40 33.3334V6.66664C40 3 37 0 33.3334 0ZM29.6928 28.085C29.366 28.8823 28.8562 29.5687 28.1569 30.1438C27.4576 30.719 26.5687 31.1765 25.4772 31.5164C24.3857 31.8563 23.0916 32.0262 21.5883 32.0262H10.8693V8.69281H22.2091C24.3006 8.69281 25.9804 9.16992 27.2418 10.1307C28.5032 11.0915 29.1372 12.5359 29.1372 14.4771C29.1372 15.6536 28.8496 16.6601 28.2745 17.4967C27.6993 18.3334 26.8758 18.987 25.8038 19.4445V19.5098C27.2417 19.817 28.3333 20.4968 29.0718 21.5491C29.8103 22.6079 30.1829 23.9281 30.1829 25.5229C30.183 26.4379 30.0196 27.2941 29.6928 28.085Z" fill="#5E3B7F"/>
</g>
<defs>
<clipPath id="clip0_1456_1946">
<rect width="40" height="40" fill="white"/>
</clipPath>
</defs>
</svg>
