<svg width="40" height="40" viewBox="0 0 40 40" fill="none" xmlns="http://www.w3.org/2000/svg">
<g clip-path="url(#clip0_1456_1931)">
<path d="M40 20C40 26.431 36.9641 32.1534 32.2473 35.8123C28.8637 38.4376 24.6147 40 20 40C15.3853 40 11.1363 38.4376 7.75266 35.8123C3.03594 32.1534 0 26.431 0 20C0 8.9543 8.9543 0 20 0C31.0457 0 40 8.9543 40 20Z" fill="#F2F2F2"/>
<path d="M34.5307 9.33386L32.2475 35.8122C28.8638 38.4375 24.6148 40 20.0001 40C15.3854 40 11.1364 38.4375 7.75276 35.8122L5.46948 9.33386H34.5307Z" fill="#006BC0"/>
<path d="M19.9998 11.8232V39.4762L29.5523 36.7794L31.6832 11.8232H19.9998Z" fill="#0096DC"/>
<path d="M28.4403 22.6396H21.5507L28.7499 18.9757L29.061 15.2926H10.9385L11.2556 19.0477H18.5304L11.5504 22.5378L11.8751 26.3846H24.3262L23.9181 30.966L19.9997 32.0273L15.9181 30.8844L15.8161 28.0273H12.0139L12.4895 33.6599L19.9997 35.7824L27.5099 33.6599L28.4405 22.6389L28.4403 22.6396Z" fill="white"/>
<path d="M12.9182 5.25192V2.63965H16.6732V1.22473H11.5576V6.66684H16.6732V5.25192H12.9182Z" fill="#222123"/>
<path d="M18.8704 3.35395V2.70083H22.6052V2.63965V1.22473H17.4895V4.59879H21.1561V5.25192H17.4895V6.66684H22.6052V5.25192V3.35395H18.8704Z" fill="#222123"/>
<path d="M24.7071 3.35395V2.70083H28.4418V2.63965V1.22473H23.3262V4.59879H26.9928V5.25192H23.3262V6.66684H28.4418V5.25192V3.35395H24.7071Z" fill="#222123"/>
</g>
<defs>
<clipPath id="clip0_1456_1931">
<rect width="40" height="40" fill="white"/>
</clipPath>
</defs>
</svg>
