<svg width="21" height="32" viewBox="0 0 21 32" fill="none" xmlns="http://www.w3.org/2000/svg">
<path d="M5.06944 31.1294C7.86922 31.1294 10.1389 28.8563 10.1389 26.0523V20.9752H5.06944C2.26967 20.9752 0 23.2483 0 26.0523C0 28.8563 2.26967 31.1294 5.06944 31.1294Z" fill="#0ACF83"/>
<path d="M0 15.8986C0 13.0946 2.26967 10.8215 5.06944 10.8215H10.1389V20.9757H5.06944C2.26967 20.9757 0 18.7026 0 15.8986Z" fill="#A259FF"/>
<path d="M0 5.74372C0 2.93972 2.26967 0.666626 5.06944 0.666626H10.1389V10.8208H5.06944C2.26967 10.8208 0 8.54772 0 5.74372Z" fill="#F24E1E"/>
<path d="M10.1394 0.666626H15.2088C18.0086 0.666626 20.2783 2.93972 20.2783 5.74372C20.2783 8.54772 18.0086 10.8208 15.2088 10.8208H10.1394V0.666626Z" fill="#FF7262"/>
<path d="M20.2783 15.8986C20.2783 18.7026 18.0086 20.9757 15.2088 20.9757C12.4091 20.9757 10.1394 18.7026 10.1394 15.8986C10.1394 13.0946 12.4091 10.8215 15.2088 10.8215C18.0086 10.8215 20.2783 13.0946 20.2783 15.8986Z" fill="#1ABCFE"/>
</svg>
