<svg width="40" height="40" viewBox="0 0 40 40" fill="none" xmlns="http://www.w3.org/2000/svg">
<g clip-path="url(#clip0_1456_1952)">
<path d="M34.5455 0H5.45455C2.44208 0 0 2.44208 0 5.45455V34.5455C0 37.5579 2.44208 40 5.45455 40H34.5455C37.5579 40 40 37.5579 40 34.5455V5.45455C40 2.44208 37.5579 0 34.5455 0Z" fill="#262626"/>
<path d="M20 8.02051C13.0932 8.02051 7.5 13.5205 7.5 20.3046C7.5 25.7319 11.0818 30.3364 16.0477 31.9591C16.6727 32.0728 16.9 31.6932 16.9 31.3682C16.9 31.0432 16.9 30.3023 16.8864 29.2796C13.4091 30.0205 12.675 27.6319 12.675 27.6319C12.1068 26.2137 11.2841 25.8341 11.2841 25.8341C10.1477 25.0728 11.3727 25.0887 11.3727 25.0887C12.6273 25.1728 13.2864 26.3546 13.2864 26.3546C14.4 28.2319 16.2114 27.6887 16.9227 27.3751C16.9831 26.7486 17.269 26.1655 17.7273 25.7341C14.9523 25.4251 12.0455 24.3705 12.0455 19.6637C12.021 18.4407 12.4753 17.2566 13.3114 16.3637C13.1705 16.0523 12.75 14.8046 13.4205 13.1114C13.4205 13.1114 14.4682 12.7819 16.8591 14.3705C18.9059 13.819 21.0623 13.819 23.1091 14.3705C25.4841 12.7796 26.5182 13.1114 26.5182 13.1114C27.2 14.8046 26.7682 16.0523 26.6432 16.3637C27.4825 17.2538 27.9423 18.4358 27.925 19.6591C27.925 24.3773 25.0023 25.416 22.2227 25.7182C22.6591 26.0864 23.0659 26.841 23.0659 27.991C23.0659 29.6341 23.05 30.9455 23.05 31.3546C23.05 31.6773 23.2773 32.0614 23.9091 31.9387C28.9091 30.3251 32.4886 25.7182 32.4886 20.3001C32.5 13.5205 26.9023 8.02051 20 8.02051Z" fill="white"/>
</g>
<defs>
<clipPath id="clip0_1456_1952">
<rect width="40" height="40" fill="white"/>
</clipPath>
</defs>
</svg>
