<svg width="40" height="40" viewBox="0 0 40 40" fill="none" xmlns="http://www.w3.org/2000/svg">
<g clip-path="url(#clip0_1456_1921)">
<path d="M40 20C40 26.431 36.9641 32.1534 32.2473 35.8123C28.8637 38.4376 24.6147 40 20 40C15.427 40 11.213 38.4653 7.84406 35.8824C3.07508 32.2277 0 26.4727 0 20C0 8.9543 8.9543 0 20 0C31.0457 0 40 8.9543 40 20Z" fill="#F2F2F2"/>
<path d="M34.5307 9.33386L32.2474 35.8122C28.8638 38.4375 24.6148 40 20.0001 40C15.427 40 11.2131 38.4653 7.84416 35.8824L5.55518 9.33386H34.5307Z" fill="#E64C18"/>
<path d="M20.0427 11.8163V39.388L29.5673 36.6992L31.6919 11.8163H20.0427Z" fill="#F36518"/>
<path d="M11.0081 15.2756L11.942 26.3352H24.3563L23.9502 30.9038L20.0429 31.9619L15.9734 30.8219L15.8713 27.9735H12.0806L12.5551 33.5892L20.0429 35.7053L27.5306 33.5892L28.4586 22.6012H15.385L15.0606 19.02L15.0605 19.0199L28.7677 18.9481L29.0777 15.2756H11.0081Z" fill="white"/>
<path d="M11.8093 1.31213V3.21221H9.99384V1.31213H8.30493V6.75877H9.99384V4.98549H11.8093V6.75877H13.4982V1.31213H11.8093Z" fill="black"/>
<path d="M19.4937 1.31213H14.3003V3.21221H15.9892V6.80112H17.8048V3.21221H19.4937V1.31213Z" fill="black"/>
<path d="M29.1628 5.06996V1.35449H27.3472V5.06996V6.80121H29.1628H31.7804V5.06996H29.1628Z" fill="black"/>
<path d="M24.6027 1.35449L23.3362 3.29668L22.0695 1.35449H20.2539V6.80121H22.0695V4.09887L23.3362 6.04121L24.6027 4.09887V6.80121H26.4184V1.35449H24.6027Z" fill="black"/>
</g>
<defs>
<clipPath id="clip0_1456_1921">
<rect width="40" height="40" fill="white"/>
</clipPath>
</defs>
</svg>
