<svg width="40" height="40" viewBox="0 0 40 40" fill="none" xmlns="http://www.w3.org/2000/svg">
<path d="M0 0H40V40H0V0Z" fill="#FFDF00"/>
<path d="M26.8698 31.2501C27.6755 32.5657 28.7238 33.5326 30.5778 33.5326C32.1352 33.5326 33.1301 32.7542 33.1301 31.6786C33.1301 30.3897 32.1079 29.9333 30.3936 29.1834L29.4539 28.7802C26.7415 27.6247 24.9396 26.177 24.9396 23.1167C24.9396 20.2976 27.0876 18.1516 30.4444 18.1516C32.8342 18.1516 34.5524 18.9833 35.7904 21.1611L32.8635 23.0405C32.219 21.885 31.5238 21.4297 30.4444 21.4297C29.3435 21.4297 28.6457 22.1282 28.6457 23.0405C28.6457 24.1682 29.3441 24.6247 30.9567 25.3231L31.8964 25.7256C35.0901 27.0951 36.8932 28.4913 36.8932 31.6304C36.8932 35.0145 34.2348 36.8685 30.6646 36.8685C27.1739 36.8685 24.9186 35.205 23.8151 33.0247L26.8698 31.2501ZM13.5917 31.5758C14.1821 32.6235 14.7193 33.5092 16.0107 33.5092C17.2457 33.5092 18.0247 33.026 18.0247 31.1473V18.3663H21.7835V31.198C21.7835 35.09 19.5016 36.8615 16.1707 36.8615C13.1612 36.8615 11.4184 35.304 10.532 33.4282L13.5917 31.5758Z" fill="black"/>
</svg>
