<svg width="32" height="33" viewBox="0 0 32 33" fill="none" xmlns="http://www.w3.org/2000/svg">
<mask id="mask0_1457_2074" style="mask-type:alpha" maskUnits="userSpaceOnUse" x="0" y="0" width="32" height="33">
<path fill-rule="evenodd" clip-rule="evenodd" d="M9.60172 0C14.9024 0 19.2034 4.30989 19.2034 9.62393V13.2807H22.3981C27.6988 13.2807 31.9998 17.5906 31.9998 22.9046C31.9998 28.2187 27.7032 32.5285 22.3981 32.5285H0V9.62393C0 4.30989 4.29656 0 9.60172 0Z" fill="url(#paint0_linear_1457_2074)"/>
</mask>
<g mask="url(#mask0_1457_2074)">
<path d="M13.3626 40.2028C25.3244 40.2028 35.0213 30.5058 35.0213 18.5441C35.0213 6.58226 25.3244 -3.11469 13.3626 -3.11469C1.4008 -3.11469 -8.29614 6.58226 -8.29614 18.5441C-8.29614 30.5058 1.4008 40.2028 13.3626 40.2028Z" fill="#4B73FF"/>
<path d="M15.7415 28.3167C31.061 28.3167 43.4799 18.6198 43.4799 6.65801C43.4799 -5.30378 31.061 -15.0007 15.7415 -15.0007C0.422054 -15.0007 -11.9968 -5.30378 -11.9968 6.65801C-11.9968 18.6198 0.422054 28.3167 15.7415 28.3167Z" fill="#FF66F4"/>
<path d="M20.2652 21.6027C32.227 21.6027 41.9239 13.0866 41.9239 2.58145C41.9239 -7.92371 32.227 -16.4398 20.2652 -16.4398C8.30339 -16.4398 -1.39355 -7.92371 -1.39355 2.58145C-1.39355 13.0866 8.30339 21.6027 20.2652 21.6027Z" fill="#FF0105"/>
<path d="M16.1267 19.6775C23.3208 19.6775 29.1527 13.8455 29.1527 6.65139C29.1527 -0.54272 23.3208 -6.37469 16.1267 -6.37469C8.93256 -6.37469 3.10059 -0.54272 3.10059 6.65139C3.10059 13.8455 8.93256 19.6775 16.1267 19.6775Z" fill="#FE7B02"/>
</g>
<defs>
<linearGradient id="paint0_linear_1457_2074" x1="8.598" y1="6.44728" x2="18.3672" y2="33.3103" gradientUnits="userSpaceOnUse">
<stop offset="0.03" stop-color="#FF8E63"/>
<stop offset="0.56" stop-color="#FF7EB0"/>
<stop offset="0.95" stop-color="#4B73FF"/>
</linearGradient>
</defs>
</svg>
