<svg width="36" height="27" viewBox="0 0 36 27" fill="none" xmlns="http://www.w3.org/2000/svg">
<path d="M0.133301 26.0491V0.641837C0.133301 0.469037 0.207375 0.370195 0.380175 0.370195C0.799965 0.370195 1.19499 0.370194 1.76292 0.345541C2.35551 0.320888 2.97276 0.32089 3.63942 0.296121C4.30608 0.271353 5.02217 0.271468 5.78756 0.2467C6.55295 0.222047 7.29369 0.222046 8.03442 0.222046C10.0591 0.222046 11.7381 0.468921 13.1209 0.987437C14.3555 1.40723 15.4912 2.09854 16.4295 3.01208C17.2197 3.80224 17.8369 4.7652 18.2319 5.82688C18.6023 6.86392 18.7999 7.9256 18.7999 9.03671C18.7999 11.1602 18.306 12.9132 17.3184 14.2959C16.3308 15.6787 14.948 16.7157 13.3431 17.3083C11.664 17.9256 9.81219 18.1478 7.78755 18.1478C7.19496 18.1478 6.79994 18.1478 6.55295 18.1231C6.30607 18.0985 5.96036 18.0985 5.49126 18.0985V26.0244C5.51592 26.1972 5.39254 26.3453 5.21962 26.3701C5.19497 26.3701 5.1702 26.3701 5.12089 26.3701H0.429596C0.232028 26.3701 0.133301 26.2714 0.133301 26.0491ZM5.51603 5.13568V13.4319C5.86175 13.4566 6.1827 13.4814 6.47899 13.4814H7.78767C9.49263 13.4814 11.4617 13.0807 12.6518 11.7284C13.676 10.5645 13.6788 8.25639 12.8493 6.98764C11.8646 5.48151 9.89541 5.04517 8.20734 5.08638C7.56533 5.08638 6.99751 5.08638 6.5283 5.11103C6.03455 5.08626 5.68883 5.11091 5.51603 5.13568Z" fill="#00A9FF"/>
<path d="M34.2072 11.9256C33.4665 11.5306 32.6763 11.259 31.8368 11.0862C30.9233 10.8886 30.0096 10.7652 29.0715 10.7652C28.5776 10.7406 28.0591 10.8147 27.59 10.938C27.269 11.0121 26.9974 11.1849 26.8246 11.4319C26.7011 11.6295 26.627 11.8763 26.627 12.0986C26.627 12.3208 26.7257 12.543 26.8739 12.7406C27.0961 13.0122 27.3924 13.2344 27.7134 13.4072C28.2813 13.7035 28.8739 13.9752 29.4665 14.222C30.7998 14.6665 32.0837 15.2837 33.2689 16.0245C34.0837 16.543 34.7504 17.2343 35.2195 18.0739C35.6145 18.864 35.812 19.7282 35.7874 20.617C35.812 21.7776 35.4664 22.938 34.8244 23.9009C34.1331 24.8885 33.1702 25.6541 32.0591 26.0985C30.8492 26.617 29.3677 26.8887 27.59 26.8887C26.4542 26.8887 25.3431 26.7899 24.232 26.5677C23.3678 26.4196 22.5037 26.1479 21.7135 25.7775C21.5407 25.6788 21.4172 25.5059 21.4419 25.3085V21.0122C21.4419 20.9381 21.4665 20.8394 21.5406 20.79C21.6147 20.7405 21.6887 20.7653 21.7628 20.8146C22.7258 21.3825 23.7381 21.7776 24.8245 22.0244C25.7628 22.2713 26.7504 22.3948 27.738 22.3948C28.6763 22.3948 29.343 22.2713 29.7874 22.0491C30.1824 21.8763 30.4541 21.4565 30.4541 21.0121C30.4541 20.6663 30.2565 20.3454 29.8615 20.0244C29.4665 19.7035 28.6517 19.3331 27.4417 18.8639C26.1825 18.4195 25.0219 17.8269 23.9356 17.0862C23.1702 16.543 22.5282 15.8269 22.0591 14.9874C21.6641 14.1973 21.4665 13.3332 21.4912 12.4689C21.4912 11.4072 21.7875 10.3949 22.3306 9.48132C22.9479 8.49371 23.8615 7.70355 24.9232 7.20969C26.0837 6.6171 27.5404 6.34546 29.2936 6.34546C30.3059 6.34546 31.343 6.41953 32.3552 6.56768C33.096 6.66641 33.8121 6.86397 34.4787 7.13562C34.5774 7.16027 34.6763 7.25911 34.7256 7.35784C34.7502 7.45656 34.775 7.55541 34.775 7.65413V11.6788C34.775 11.7775 34.7256 11.8763 34.6515 11.9256C34.4294 11.9751 34.3059 11.9751 34.2072 11.9256Z" fill="#00A9FF"/>
</svg>
