<svg width="36" height="38" viewBox="0 0 36 38" fill="none" xmlns="http://www.w3.org/2000/svg">
<path d="M28.968 19C30.8791 16.657 32.5588 14.1344 33.9836 11.4676C36.3004 6.98757 36.6348 3.73157 34.9512 2.04837C32.0372 -0.867629 24.8952 2.52997 18 8.04197C11.106 2.52957 3.96437 -0.867229 1.04837 2.04837C-0.635232 3.73157 -0.300432 6.98877 2.01597 11.4676C3.44087 14.1344 5.12072 16.657 7.03197 19C5.12086 21.343 3.44115 23.8655 2.01637 26.5324C-0.300432 31.0124 -0.634832 34.2684 1.04877 35.9516C1.44137 36.3186 1.90412 36.6025 2.40921 36.7861C2.9143 36.9698 3.45131 37.0495 3.98797 37.0204C7.54797 37.0204 12.844 34.0812 18.0004 29.9588C23.1564 34.08 28.4508 37.0212 32.0124 37.0204C32.549 37.0494 33.086 36.9696 33.591 36.786C34.0961 36.6023 34.5589 36.3185 34.9516 35.9516C36.6352 34.2684 36.3004 31.0112 33.984 26.5324C32.5591 23.8655 30.8792 21.3429 28.968 19ZM32.0348 2.59397C32.3563 2.56911 32.6796 2.60805 32.986 2.70855C33.2925 2.80905 33.576 2.96912 33.8204 3.17957C34.9136 4.27277 34.4436 7.09637 32.5628 10.7324C31.2417 13.2073 29.6904 15.5523 27.9296 17.7364C26.6524 16.22 25.2628 14.704 23.7796 13.2208C22.334 11.7752 20.8096 10.3784 19.2596 9.07517C24.6328 4.82797 29.3652 2.59397 32.0348 2.59397ZM26.902 19C25.6024 20.5576 24.1764 22.12 22.648 23.648C21.078 25.2184 19.52 26.636 18 27.9024C16.48 26.636 14.9228 25.2188 13.352 23.648C11.8236 22.12 10.398 20.5576 9.09797 19C10.3976 17.4424 11.8236 15.88 13.352 14.352C14.9224 12.7816 16.48 11.3636 18 10.0972C19.52 11.3636 21.0776 12.7816 22.648 14.352C24.1764 15.88 25.602 17.4424 26.902 19ZM3.43717 10.7324C1.55717 7.09637 1.08637 4.27317 2.17957 3.17957C2.42393 2.96912 2.70748 2.80905 3.01392 2.70855C3.32035 2.60805 3.64363 2.56911 3.96517 2.59397C6.63477 2.59397 11.3676 4.82837 16.7416 9.07397C15.1908 10.3772 13.666 11.774 12.2216 13.2196C10.7384 14.7028 9.34837 16.2196 8.07157 17.7352C6.31036 15.5516 4.75871 13.2069 3.43717 10.7324ZM3.96517 35.406C3.64363 35.4308 3.32035 35.3919 3.01392 35.2914C2.70748 35.1909 2.42393 35.0308 2.17957 34.8204C1.08637 33.7272 1.55637 30.9036 3.43717 27.2676C4.75827 24.7926 6.30952 22.4476 8.07037 20.2636C9.34757 21.78 10.7372 23.296 12.2204 24.7792C13.6656 26.2244 15.1892 27.6232 16.7404 28.9264C11.3664 33.1728 6.63437 35.4064 3.96517 35.406ZM33.8204 34.8204C32.0952 36.5444 26.2152 34.4228 19.2604 28.9264C20.8112 27.6232 22.3348 26.2244 23.7804 24.7792C25.2636 23.296 26.6536 21.7792 27.9304 20.2636C29.6912 22.4476 31.2425 24.7926 32.5636 27.2676C34.4432 30.9036 34.9136 33.7268 33.8204 34.8204ZM18 15C17.2088 15 16.4355 15.2346 15.7777 15.6741C15.1199 16.1136 14.6072 16.7383 14.3044 17.4692C14.0017 18.2001 13.9225 19.0044 14.0768 19.7803C14.2312 20.5563 14.6121 21.269 15.1715 21.8284C15.731 22.3878 16.4437 22.7688 17.2196 22.9231C17.9955 23.0775 18.7998 22.9982 19.5307 22.6955C20.2616 22.3927 20.8863 21.88 21.3258 21.2223C21.7654 20.5645 22 19.7911 22 19C21.9988 17.9395 21.577 16.9227 20.8271 16.1728C20.0772 15.4229 19.0605 15.0011 18 15ZM18 21.4C17.5253 21.4 17.0613 21.2592 16.6666 20.9955C16.2719 20.7318 15.9643 20.357 15.7827 19.9184C15.601 19.4799 15.5535 18.9973 15.6461 18.5318C15.7387 18.0662 15.9673 17.6386 16.3029 17.3029C16.6386 16.9673 17.0662 16.7387 17.5318 16.6461C17.9973 16.5535 18.4799 16.601 18.9184 16.7827C19.357 16.9643 19.7318 17.2719 19.9955 17.6666C20.2592 18.0613 20.4 18.5253 20.4 19C20.3992 19.6363 20.1461 20.2463 19.6962 20.6962C19.2463 21.1461 18.6363 21.3992 18 21.4Z" fill="url(#paint0_linear_1456_1959)"/>
<defs>
<linearGradient id="paint0_linear_1456_1959" x1="1.04837" y1="2.04837" x2="34.9516" y2="35.9516" gradientUnits="userSpaceOnUse">
<stop stop-color="#00C6FF"/>
<stop offset="1" stop-color="#0072FF"/>
</linearGradient>
</defs>
</svg>
