<svg width="38" height="23" viewBox="0 0 38 23" fill="none" xmlns="http://www.w3.org/2000/svg">
<path d="M19 0C13.9343 0 10.7656 2.55593 9.49877 7.66736C11.4002 5.11144 13.617 4.15187 16.1511 4.78992C17.5952 5.15553 18.6277 6.21325 19.7726 7.38535C21.6355 9.29159 23.7923 11.5002 28.5012 11.5002C33.5669 11.5002 36.7332 8.94428 38 3.83285C36.1006 6.38877 33.8838 7.34626 31.3502 6.70779C29.906 6.34427 28.8715 5.28446 27.7287 4.11485C25.8662 2.20654 23.7094 0 19 0ZM9.49877 11.5002C4.43309 11.5002 1.26683 14.0561 0 19.1676C1.89943 16.6116 4.11617 15.6542 6.64984 16.2926C8.09606 16.6561 9.12849 17.716 10.2713 18.8856C12.1338 20.7939 14.2906 23 19 23C24.0677 23 27.2344 20.4441 28.5012 15.3326C26.5998 17.8886 24.383 18.8485 21.8514 18.2101C20.4052 17.8445 19.3727 16.7867 18.2274 15.6146C16.3649 13.7088 14.2081 11.5002 9.49877 11.5002Z" fill="#06B6D4"/>
</svg>
