<svg width="38" height="15" viewBox="0 0 38 15" fill="none" xmlns="http://www.w3.org/2000/svg">
<g clip-path="url(#clip0_1457_2063)">
<mask id="mask0_1457_2063" style="mask-type:luminance" maskUnits="userSpaceOnUse" x="0" y="0" width="39" height="15">
<path d="M0 0.0249023H38.0245V14.9769H0V0.0249023Z" fill="white"/>
</mask>
<g mask="url(#mask0_1457_2063)">
<path d="M18.1547 0.0274105C17.8656 0.0398483 17.5716 0.0597488 17.5055 0.0721866C17.4369 0.0846244 17.2948 0.129401 17.187 0.174177C17.0792 0.216465 16.9248 0.29358 16.844 0.343331C16.7631 0.390595 16.648 0.472684 16.5892 0.519948C16.5279 0.569699 16.4103 0.694077 16.3221 0.796067C16.2217 0.91547 16.1237 1.0697 16.0477 1.23139C15.9375 1.46025 15.9081 1.5697 15.6827 2.5498C15.5504 3.13935 15.3225 4.13935 15.1804 4.77617C15.0383 5.41298 14.6953 6.94532 14.416 8.18413C14.1391 9.42293 13.9015 10.4578 13.8917 10.4851C13.877 10.5249 13.8696 10.5274 13.8574 10.4976C13.85 10.4777 13.7986 10.2463 13.7447 9.98761C13.6883 9.7289 13.4899 8.78612 13.3037 7.89806C13.1175 7.00751 12.8137 5.5697 12.6299 4.70154C12.4462 3.83338 12.2428 2.87567 12.1767 2.57467C12.1081 2.27368 12.0223 1.94283 11.9831 1.84084C11.9439 1.73885 11.8704 1.58214 11.8214 1.49258C11.77 1.40303 11.6597 1.24134 11.5764 1.13189C11.4931 1.02244 11.3583 0.873182 11.2799 0.798555C11.2015 0.723928 11.0423 0.602037 10.9271 0.524923C10.812 0.450296 10.6258 0.345818 10.5106 0.29358C10.3955 0.243828 10.1921 0.171689 10.0574 0.134376C9.83443 0.0721866 9.77318 0.0672115 9.39587 0.0672115C9.03082 0.0672115 8.94997 0.0746741 8.74661 0.129401C8.61921 0.164226 8.43056 0.226415 8.33011 0.268704C8.22966 0.310993 8.04101 0.41547 7.9136 0.502535C7.7862 0.587112 7.5853 0.753779 7.47015 0.870694C7.355 0.987609 7.20064 1.17169 7.12959 1.28114C7.05609 1.39059 6.95564 1.5697 6.90174 1.67915C6.84784 1.7886 6.77434 2.00253 6.73514 2.15179C6.69839 2.30104 6.59794 2.73388 6.51709 3.1095C6.43378 3.48512 6.25248 4.33587 6.11283 5.00005C5.97563 5.66423 5.76983 6.63686 5.65957 7.16423C5.54932 7.69159 5.35087 8.63686 5.21612 9.26622C5.08382 9.89557 4.96377 10.4329 4.95152 10.4602C4.93436 10.5 4.92701 10.5025 4.91476 10.4727C4.90741 10.4528 4.69181 9.49507 4.43456 8.34582C4.1773 7.19656 3.9127 6.01497 3.84655 5.72144C3.77795 5.42791 3.55255 4.42542 3.34429 3.49507C3.13604 2.56472 2.93759 1.70403 2.90329 1.57965C2.86899 1.45527 2.80529 1.28363 2.76364 1.19408C2.71954 1.10452 2.62398 0.955271 2.54803 0.858256C2.47208 0.763729 2.34468 0.626913 2.26383 0.557261C2.18543 0.490097 2.08743 0.408007 2.04578 0.380644C2.00413 0.350794 1.89387 0.288604 1.80077 0.241341C1.70767 0.194077 1.53617 0.129401 1.42102 0.0995498C1.23727 0.0497985 1.13926 0.0423358 0.607608 0.0348732L0 0.0249229C0.0196003 0.111988 0.269504 1.2289 0.565957 2.56224C0.862411 3.89557 1.22502 5.51995 1.37202 6.1692C1.51657 6.81846 1.91838 8.60453 2.26383 10.1369C2.60683 11.6692 2.99149 13.3831 3.11644 13.9428L3.34429 14.9627C4.1038 14.9727 4.50561 14.9652 4.72856 14.9528C5.08627 14.9329 5.15977 14.9204 5.37782 14.8458C5.51257 14.801 5.70857 14.714 5.81638 14.6518C5.92173 14.5896 6.08833 14.4727 6.18388 14.3881C6.27943 14.306 6.41418 14.1667 6.48279 14.0772C6.55384 13.9901 6.66164 13.8334 6.72289 13.7314C6.78414 13.6294 6.86989 13.4379 6.90909 13.3085C6.95074 13.1792 7.15899 12.2438 7.3746 11.2314C7.58775 10.219 7.84255 9.01 7.9381 8.54482C8.03611 8.07965 8.26886 6.96522 8.45506 6.0697C8.64371 5.17418 8.88137 4.05975 8.98182 3.59457C9.08472 3.1294 9.17782 2.7289 9.19007 2.70403C9.20232 2.68164 9.23907 2.6493 9.27337 2.63686C9.30767 2.62443 9.37137 2.61199 9.41547 2.61199C9.46447 2.61199 9.52327 2.63686 9.57473 2.67915C9.65313 2.74632 9.66048 2.7687 9.75358 3.209C9.80748 3.46273 10.1652 5.1692 10.5498 7.00254C10.9345 8.83587 11.3804 10.9627 11.5397 11.7289C11.7234 12.5996 11.8606 13.2015 11.9096 13.3334C11.9513 13.4503 12.0272 13.617 12.0787 13.7065C12.1301 13.7961 12.2379 13.9553 12.3212 14.0597C12.4021 14.1667 12.5442 14.316 12.6373 14.3931C12.7279 14.4702 12.8847 14.5796 12.9852 14.6394C13.0856 14.6991 13.2914 14.7911 13.4384 14.8408C13.6908 14.9279 13.7349 14.9329 14.1367 14.9503C14.3719 14.9627 14.7688 14.9752 15.0187 14.9801L15.4695 14.9876C15.521 14.7165 15.7439 13.709 15.9987 12.5747C16.2535 11.4403 16.8905 8.59706 17.4173 6.25627C17.944 3.91547 18.4732 1.56224 18.5957 1.02492C18.7158 0.490097 18.8113 0.0398483 18.804 0.0249229C18.7966 0.0124851 18.7672 0.00253484 18.7378 0.00502241C18.706 0.00502241 18.4438 0.0174602 18.1547 0.0274105ZM21.9645 0.0497985C21.8984 0.0597488 21.771 0.0920871 21.6828 0.11945C21.5946 0.149301 21.4574 0.216465 21.3765 0.268704C21.2957 0.320943 21.1854 0.403032 21.134 0.450296C21.0825 0.49756 20.9943 0.602037 20.938 0.684127C20.8841 0.766216 20.8081 0.912983 20.7665 1.00751L20.6954 1.18164C20.666 2.30104 20.6562 5.40303 20.6562 8.80104L20.6538 14.9752C21.918 14.9602 21.9474 14.9578 22.136 14.8931C22.2438 14.8558 22.4031 14.7787 22.4888 14.7214C22.577 14.6617 22.7069 14.5473 22.7779 14.4652C22.8515 14.3831 22.9544 14.2264 23.0058 14.117C23.0597 14.0075 23.1185 13.8508 23.1406 13.7687C23.1724 13.6369 23.1773 12.8806 23.1773 6.82094V0.0249229C22.332 0.029898 22.0331 0.0398483 21.9645 0.0497985ZM25.0271 0.0672115C25.0369 0.0920871 25.1741 0.308505 25.3333 0.547311C25.4926 0.786117 26.012 1.56721 26.4873 2.28114C26.9651 2.99507 27.6511 4.02492 28.0161 4.5697C28.3787 5.11448 28.9667 5.99258 29.3195 6.52492L29.9639 7.48761C29.8928 7.63189 29.6699 7.98263 29.42 8.35826C29.1725 8.73388 28.6776 9.48015 28.3224 10.0125C27.9671 10.5473 27.0876 11.8632 26.3697 12.9428C25.6518 14.0199 25.0565 14.918 25.0467 14.9403C25.0295 14.9777 25.13 14.9801 26.2276 14.9702C27.3889 14.9578 27.433 14.9578 27.5874 14.903C27.6756 14.8732 27.8128 14.816 27.8936 14.7737C27.9745 14.7339 28.1166 14.6418 28.2121 14.5697C28.3493 14.4652 28.4253 14.3757 28.6041 14.117C28.7266 13.9403 29.0476 13.4627 29.3171 13.0597C29.5866 12.6568 30.1035 11.8831 30.4661 11.3433C30.8288 10.8035 31.1816 10.2737 31.2551 10.1692C31.3482 10.0299 31.4045 9.9702 31.4535 9.96025C31.4927 9.9503 31.5442 9.95776 31.5785 9.97766C31.6128 9.99756 31.7255 10.1418 31.8333 10.2986C31.9411 10.4553 32.2057 10.8483 32.4213 11.1692C32.6369 11.4901 33.1612 12.2737 33.585 12.9105C34.0089 13.5473 34.4181 14.1493 34.494 14.2513C34.57 14.3533 34.6876 14.4851 34.7537 14.5448C34.8223 14.6045 34.9693 14.7015 35.0845 14.7612C35.1996 14.8209 35.3613 14.8956 35.4471 14.9229C35.5916 14.9727 35.648 14.9752 36.7995 14.9752H38C37.8726 14.7911 37.6888 14.5199 37.51 14.2538C37.3336 13.9876 36.8191 13.214 36.3658 12.5374C35.915 11.8607 35.3466 11.01 35.1041 10.6468C34.8615 10.2836 34.3225 9.47268 33.9084 8.84333C33.4944 8.21398 33.1293 7.65428 33.095 7.59955L33.0313 7.50005C33.4944 6.80602 33.9697 6.09457 34.3862 5.47268C34.8003 4.85079 35.7803 3.38313 36.5618 2.21398C37.3434 1.04482 37.9902 0.0721866 37.9975 0.0522861C38.0098 0.0249229 37.8236 0.0199478 36.824 0.029898C35.7876 0.0398483 35.6161 0.047311 35.4765 0.0846244C35.3883 0.1095 35.2388 0.166714 35.1457 0.213978C35.0526 0.261241 34.8958 0.365719 34.8027 0.445321C34.6729 0.554774 34.5675 0.684127 34.3593 0.985122C34.2098 1.20154 33.8521 1.73388 33.5605 2.16423C33.2714 2.59457 32.8329 3.25129 32.5854 3.61945C32.338 3.9901 32.0415 4.42542 31.9288 4.5896C31.8161 4.75378 31.6863 4.93537 31.6397 4.99507C31.5736 5.07716 31.5417 5.09706 31.4903 5.09457C31.4339 5.08711 31.3849 5.03487 31.211 4.7886C31.0958 4.62443 30.7308 4.08711 30.4 3.59457C30.0692 3.10204 29.5694 2.35826 29.2901 1.94035C29.0108 1.52244 28.6899 1.05229 28.5796 0.89557C28.4694 0.738853 28.3126 0.547311 28.2342 0.472684C28.1533 0.398057 28.0112 0.29358 27.9181 0.243828C27.8226 0.194077 27.6633 0.126913 27.5629 0.0970622C27.384 0.0423358 27.3399 0.0398483 26.1957 0.029898C25.0589 0.0224353 25.0124 0.0224353 25.0271 0.0672115Z" fill="white"/>
</g>
</g>
<defs>
<clipPath id="clip0_1457_2063">
<rect width="38" height="15" fill="white"/>
</clipPath>
</defs>
</svg>
