<svg width="40" height="31" viewBox="0 0 40 31" fill="none" xmlns="http://www.w3.org/2000/svg">
<path d="M21.3332 3.12588L13.5734 15.9336L21.8755 29.5341C21.9287 29.6292 21.9437 29.7411 21.9173 29.8469C21.8893 29.9447 21.7922 29.8831 21.6253 29.9106H15.7013C15.2839 29.9106 14.992 29.8959 14.8251 29.6175C14.2684 28.5328 13.7121 27.4551 13.1563 26.3843C12.5996 25.3139 12.0086 24.2222 11.3833 23.1093C10.7576 21.9974 10.1387 20.8709 9.52679 19.73H9.48501C8.92835 20.8428 8.35117 21.9553 7.75358 23.0676C7.15526 24.1803 6.56422 25.2858 5.9806 26.3842C5.39649 27.4832 4.79854 28.5749 4.18674 29.6592C4.07523 29.9095 3.88029 29.9352 3.6025 29.9352H-2.11299C-2.22388 29.9352 -2.28644 29.9791 -2.30077 29.8677C-2.31644 29.7659 -2.29421 29.6621 -2.2381 29.5757L5.81359 16.3507L-2.02955 3.0841C-2.11299 2.97333 -2.12684 2.88296 -2.07133 2.813C-2.0089 2.74085 -1.9161 2.70223 -1.82087 2.70866H4.06139C4.18965 2.70162 4.31791 2.72299 4.43695 2.77134C4.53667 2.82782 4.6223 2.90628 4.68728 3.00078C5.18794 4.11349 5.74424 5.22595 6.35604 6.3383C6.9676 7.45101 7.58632 8.54963 8.21258 9.63416C8.83835 10.7188 9.41553 11.8174 9.94401 12.93H9.9858C10.5417 11.7899 11.1049 10.6774 11.6754 9.5925C12.2452 8.50784 12.8292 7.41615 13.4275 6.31753C14.0254 5.21915 14.6025 4.12745 15.159 3.04256C15.1909 2.93956 15.2484 2.8464 15.3259 2.77146C15.4289 2.71923 15.5446 2.69749 15.6596 2.70878H21.1248C21.2529 2.6772 21.3825 2.75542 21.4142 2.88357C21.4361 2.97308 21.4046 3.06746 21.3332 3.12588Z" fill="#FF61F6"/>
<path d="M33.3061 30.452C31.386 30.4812 29.4833 30.0822 27.7366 29.2838C26.1095 28.5307 24.7493 27.3014 23.836 25.7585C22.8901 24.1875 22.4174 22.2197 22.4176 19.8552C22.4019 17.9405 22.8912 16.0554 23.836 14.3899C24.8093 12.6936 26.2407 11.3055 27.9662 10.3849C29.7738 9.38365 31.9571 8.88298 34.5161 8.88298C34.655 8.88298 34.8357 8.8899 35.0585 8.90387C35.2807 8.9182 35.545 8.93897 35.8511 8.96642V0.747729C35.8511 0.553512 35.9347 0.455735 36.1016 0.455735H41.3581C41.4791 0.438488 41.5912 0.522539 41.6084 0.643514C41.6113 0.664284 41.6113 0.685297 41.6084 0.706067V25.3622C41.6084 25.8354 41.6293 26.35 41.671 26.9058C41.7127 27.4625 41.7475 27.9631 41.7753 28.4077C41.7857 28.585 41.6864 28.7507 41.5248 28.8249C40.1687 29.3904 38.7562 29.8101 37.3113 30.0764C35.9901 30.3203 34.6498 30.4459 33.3061 30.452ZM35.851 25.2788V13.8895C35.6256 13.8284 35.3953 13.7865 35.1627 13.7643C34.8785 13.7357 34.593 13.7218 34.3074 13.7226C33.295 13.7125 32.2945 13.9412 31.3871 14.39C30.5032 14.8294 29.7485 15.4906 29.1969 16.3091C28.6265 17.1435 28.3414 18.2421 28.3415 19.605C28.3212 20.5144 28.4698 21.4198 28.7795 22.275C29.0317 22.9641 29.4302 23.5904 29.9477 24.1106C30.4432 24.5893 31.043 24.9463 31.6998 25.1536C32.3937 25.3783 33.119 25.4909 33.8483 25.4873C34.2375 25.4873 34.5991 25.4733 34.933 25.4456C35.2442 25.4223 35.5517 25.3663 35.851 25.2788Z" fill="#FF61F6"/>
</svg>
