<svg width="108" height="37" viewBox="0 0 108 37" fill="none" xmlns="http://www.w3.org/2000/svg">
<g clip-path="url(#clip0_1005_6444)">
<path d="M34.0176 34.7498C33.4603 33.8073 33.0083 32.3242 32.6606 30.299L27.985 0.697407C27.8669 -0.048554 26.8946 -0.255586 26.4843 0.377594L24.7451 3.06499C24.4737 3.48469 24.3669 3.98979 24.4447 4.4836L27.0696 21.072L27.4936 23.5451L27.6501 24.6447L28.0966 27.3305L28.5896 30.2998C28.8329 31.5227 28.955 32.4298 28.955 33.0227C28.955 33.4416 28.9028 33.8435 28.7984 34.227C28.6587 34.8908 28.3367 35.4313 27.8324 35.851C27.3282 36.2699 26.571 36.5664 25.5625 36.7404L25.5103 37.0022H36.8882L36.9404 36.7404C35.548 36.3569 34.574 35.6931 34.0176 34.7506V34.7498Z" fill="url(#paint0_linear_1005_6444)"/>
<path d="M23.3592 29.1955C23.0653 28.7468 22.8252 28.0387 22.6413 27.0753L19.9892 12.8037H16.2329L16.2056 12.9278C16.628 13.0124 16.9411 13.1203 17.1443 13.2532C17.3474 13.3861 17.4478 13.5618 17.4478 13.7776C17.4478 13.8767 17.439 13.9597 17.4205 14.0266C17.4012 14.1434 17.3097 14.3689 17.1435 14.7L13.5743 20.1965C13.5743 20.1965 12.6782 22.6059 15.968 22.7284C19.4785 22.8581 19.9129 24.0213 19.953 24.1663L19.9554 24.1744V24.1808L19.9875 24.3798L20.0686 24.8196H20.0695L20.4854 27.0753C20.6131 27.6569 20.6781 28.0903 20.6781 28.3722C20.6781 28.5712 20.65 28.7637 20.5954 28.9458C20.5215 29.2616 20.3513 29.5194 20.0839 29.72C19.8173 29.9189 19.4166 30.0607 18.8827 30.1437L18.8546 30.2685H24.8759L24.904 30.1437C24.1677 29.96 23.6514 29.6442 23.3568 29.1955H23.3592ZM14.0401 20.4994L18.0845 14.2747L19.6262 22.3836C12.5441 23.3334 14.0401 20.4994 14.0401 20.4994Z" fill="white"/>
<path d="M11.3835 25.7531V25.7474C11.3819 25.7112 11.3795 25.6758 11.3763 25.6403C11.3755 25.6306 11.3747 25.6202 11.3739 25.6105C11.3739 25.6057 11.3731 25.6 11.3723 25.5952C11.3699 25.571 11.3674 25.5469 11.3642 25.5227C11.3594 25.4848 11.353 25.447 11.3466 25.4099C11.341 25.3785 11.3353 25.3471 11.3289 25.3165C11.3257 25.3012 11.3217 25.2859 11.3177 25.2705C11.3177 25.2681 11.3169 25.2649 11.3161 25.2625C11.3104 25.2375 11.304 25.2125 11.2968 25.1876C11.2968 25.1844 11.2952 25.1811 11.2944 25.1779C11.2864 25.1497 11.2783 25.1215 11.2695 25.0941C11.2687 25.0909 11.2679 25.0869 11.2663 25.0837C11.2655 25.082 11.2647 25.0796 11.2647 25.078C11.2566 25.0547 11.2494 25.0321 11.2406 25.0095C11.2366 24.9967 11.2317 24.9846 11.2269 24.9717C11.2149 24.9717 11.2036 24.9733 11.1916 24.9741C11.1587 24.9765 11.1258 24.9789 11.0928 24.983C11.0696 24.9854 11.0463 24.9886 11.0222 24.9918C11.0198 24.9918 11.0166 24.9918 11.0141 24.9918C10.9917 24.995 10.9692 24.9991 10.9459 25.0031C10.9114 25.0087 10.8776 25.016 10.8431 25.0232C10.8166 25.0289 10.7901 25.0353 10.7644 25.0418C10.7363 25.049 10.7082 25.0563 10.6809 25.0643C10.6793 25.0643 10.6785 25.0651 10.6777 25.0651C10.6504 25.0732 10.6231 25.0812 10.5966 25.0901C10.5685 25.0998 10.5412 25.1086 10.5139 25.1191C10.4585 25.1392 10.4047 25.161 10.3509 25.1843C10.2971 25.2077 10.2441 25.2327 10.1919 25.2609C10.1405 25.2875 10.0891 25.3165 10.0386 25.3471C10.0113 25.364 9.98396 25.3809 9.95746 25.3986C9.93497 25.4123 9.91249 25.4276 9.89081 25.4429C9.84263 25.4768 9.79526 25.5114 9.74869 25.5485C9.70292 25.5847 9.65796 25.6226 9.61379 25.6621C9.57043 25.7015 9.52788 25.7426 9.48693 25.7845C9.46685 25.8054 9.44597 25.8264 9.4267 25.8481C9.40663 25.8699 9.38736 25.8916 9.36809 25.9142C9.27334 26.0246 9.18742 26.1438 9.11275 26.2678C9.09107 26.3041 9.07019 26.3412 9.05092 26.379C9.03004 26.4185 9.00997 26.4588 8.9915 26.499C9.03085 26.354 9.06939 26.197 9.10954 26.0528C9.03888 26.1228 8.97223 26.1962 8.90799 26.2727C8.87668 26.3113 8.84536 26.35 8.81485 26.3903C8.79959 26.4104 8.78514 26.4298 8.76989 26.4507C8.74098 26.491 8.71207 26.5321 8.68477 26.574C8.529 26.8116 8.40374 27.0694 8.31702 27.3385C8.30578 27.3707 8.29614 27.4037 8.28651 27.4367C8.28249 27.4504 8.27928 27.4641 8.27526 27.477C8.26563 27.5133 8.25599 27.5495 8.24796 27.5858C8.19176 27.8315 8.16767 28.0828 8.18132 28.3333C8.16285 28.1988 8.0938 28.0675 8.01029 27.9604C8.0143 27.9797 8.01832 27.999 8.02153 28.0184C8.02795 28.0554 8.03117 28.0933 8.03358 28.1303C8.05606 28.5307 7.85692 28.9279 7.67385 29.296C7.63129 29.3822 7.58312 29.466 7.53414 29.5498C7.51005 29.5916 7.48596 29.6335 7.46187 29.6746C7.44983 29.6956 7.43858 29.7173 7.42654 29.7383C7.40406 29.7793 7.38238 29.8204 7.3615 29.8623C7.35187 29.8833 7.34223 29.9042 7.33259 29.926C7.30449 29.9888 7.28201 30.0508 7.26595 30.1145C7.24587 30.1942 7.23624 30.274 7.24266 30.3553C7.24347 30.3674 7.24427 30.3795 7.24668 30.3916C7.24668 30.3948 7.24668 30.3988 7.24668 30.4021C7.2531 30.4488 7.26515 30.4955 7.28281 30.5422L7.30048 30.5535L7.16638 30.7597C7.13507 30.7452 7.10134 30.7339 7.06682 30.7251C6.92469 30.6888 6.77454 30.7476 6.69585 30.8725C6.34737 31.4227 5.39988 32.909 4.98074 33.4721C4.50378 34.1141 4.05332 34.6265 3.62776 35.0107C2.74049 35.8147 1.5481 36.3907 0.0529951 36.7387L0 37.0005H8.6647L8.71689 36.7387C7.91554 36.5647 7.31573 36.3383 6.91586 36.058C6.51518 35.7793 6.31605 35.3773 6.31605 34.8537C6.31605 34.5886 6.38029 34.2591 6.50876 33.8652C6.69746 33.286 7.02506 32.5682 7.49158 31.7103C7.54859 31.6056 7.57509 31.4928 7.57509 31.3832C7.57509 31.2817 7.5526 31.1827 7.51005 31.0932L7.69392 30.8113L7.714 30.8242C7.78948 30.8201 7.85933 30.804 7.92437 30.7791C7.94043 30.7726 7.95649 30.7662 7.97255 30.7589C7.98138 30.7549 7.98941 30.7501 7.99824 30.746C8.0135 30.738 8.02956 30.7291 8.04482 30.7203C8.06328 30.709 8.08255 30.6961 8.10022 30.6832C8.13073 30.6614 8.16044 30.6381 8.18855 30.6131C8.22147 30.5841 8.25358 30.5527 8.2849 30.5197C8.30016 30.5027 8.31621 30.485 8.33227 30.4673C8.35636 30.4391 8.38045 30.4109 8.40454 30.3811C8.43184 30.3473 8.45914 30.3118 8.48724 30.2756C8.54506 30.1999 8.60207 30.1217 8.66149 30.0468C8.67995 30.0234 8.69842 30.0009 8.71689 29.9783C8.7731 29.9107 8.83011 29.8414 8.88792 29.7737C8.94654 29.706 9.00676 29.6392 9.06939 29.5755C9.27816 29.3629 9.51262 29.1872 9.79847 29.1309C9.68124 29.1011 9.55116 29.089 9.43313 29.1131C9.41948 29.1156 9.40663 29.1188 9.39378 29.1228C9.39298 29.1228 9.39137 29.1236 9.39057 29.1236H9.38896C9.43794 29.1051 9.48612 29.0849 9.5343 29.064C9.60576 29.0318 9.67562 28.9963 9.74467 28.9577C10.3597 28.6105 10.8415 28.0143 11.0952 27.3521C11.0077 27.423 10.9146 27.4972 10.8246 27.5688C10.7949 27.593 10.7652 27.6164 10.7363 27.6397C10.7604 27.6123 10.7837 27.585 10.8062 27.5568C10.8118 27.5495 10.8174 27.5423 10.823 27.535C10.8407 27.5133 10.8568 27.4915 10.8728 27.469C10.8793 27.4617 10.8841 27.4545 10.8897 27.4472C10.9098 27.419 10.929 27.39 10.9491 27.3602C10.9499 27.3586 10.9515 27.3562 10.9523 27.3546C10.9724 27.3231 10.9925 27.2909 11.0109 27.2579C11.0254 27.2345 11.039 27.2112 11.0511 27.187C11.0623 27.1685 11.072 27.1491 11.0816 27.1306C11.0952 27.104 11.1081 27.0774 11.1209 27.0509L11.1233 27.046C11.1233 27.046 11.1258 27.0412 11.1266 27.0388C11.1386 27.013 11.1506 26.9864 11.1619 26.959C11.1667 26.9486 11.1707 26.9389 11.1747 26.9284C11.1884 26.8962 11.2012 26.864 11.2125 26.8317C11.2157 26.8229 11.2189 26.8148 11.2221 26.806C11.2253 26.7979 11.2277 26.7907 11.2301 26.7826C11.2398 26.7552 11.2486 26.7278 11.2574 26.7004C11.2679 26.669 11.2767 26.6368 11.2855 26.6046C11.2904 26.5869 11.2952 26.5699 11.2992 26.553C11.3024 26.5401 11.3056 26.5264 11.3088 26.5135C11.3128 26.4982 11.3161 26.4829 11.3201 26.4668C11.3289 26.4265 11.3369 26.3871 11.3434 26.3468L11.3458 26.3323C11.3562 26.2727 11.3642 26.2123 11.3707 26.151C11.3723 26.1365 11.3739 26.1212 11.3755 26.1059C11.3771 26.0906 11.3779 26.0753 11.3787 26.06C11.3803 26.0358 11.3819 26.0117 11.3835 25.9867V25.9843C11.3851 25.9496 11.3859 25.9142 11.3859 25.8788V25.8562C11.3859 25.8216 11.3851 25.7869 11.3835 25.7523V25.7531ZM10.037 25.5638C9.74708 25.8159 9.48693 26.1011 9.2621 26.4145C9.4532 26.0785 9.72219 25.7861 10.037 25.5638ZM8.62535 27.0203C8.529 27.2668 8.43666 27.5382 8.36118 27.792C8.35957 27.7952 8.35877 27.7984 8.35797 27.8017C8.39731 27.5278 8.48885 27.2603 8.62535 27.0203ZM7.96211 29.1381C7.96211 29.1381 7.96051 29.1429 7.9589 29.1454C7.90751 29.2855 7.8224 29.4104 7.72283 29.5191C7.79188 29.3838 7.87459 29.2622 7.96211 29.1381ZM9.14888 28.4993C9.45561 28.0063 9.92213 27.2571 10.2224 26.7689C9.90125 27.3667 9.54153 27.9451 9.14888 28.4993ZM8.67594 29.0487C8.46637 29.3838 8.24796 29.7157 8.02233 30.0428C7.93883 30.1636 7.85532 30.2828 7.77101 30.4004C7.75415 30.4254 7.73568 30.4504 7.71801 30.4754C7.661 30.5551 7.60319 30.6349 7.54457 30.7138L7.45786 30.6574C7.50684 30.572 7.55662 30.4866 7.6064 30.4021C7.89225 29.9155 8.203 29.412 8.52017 28.9464C8.8293 28.4945 9.64752 27.2788 9.96308 26.81C10.2859 26.3371 10.6062 25.8618 10.9306 25.3898L10.9467 25.4002C10.2562 26.5272 9.37531 27.9185 8.67594 29.0487Z" fill="#F051A3"/>
<path d="M11.3835 25.7531V25.7474C11.3819 25.7112 11.3795 25.6758 11.3763 25.6403C11.3755 25.6306 11.3747 25.6202 11.3739 25.6105C11.3739 25.6057 11.3731 25.6 11.3723 25.5952C11.3699 25.571 11.3674 25.5469 11.3642 25.5227C11.3594 25.4848 11.353 25.447 11.3466 25.4099C11.341 25.3785 11.3353 25.3471 11.3289 25.3165C11.3257 25.3012 11.3217 25.2859 11.3177 25.2705C11.3177 25.2681 11.3169 25.2649 11.3161 25.2625C11.3104 25.2375 11.304 25.2125 11.2968 25.1876C11.2968 25.1844 11.2952 25.1811 11.2944 25.1779C11.2864 25.1497 11.2783 25.1215 11.2695 25.0941C11.2687 25.0909 11.2679 25.0869 11.2663 25.0837C11.2655 25.082 11.2647 25.0796 11.2647 25.078C11.2566 25.0547 11.2494 25.0321 11.2406 25.0095C11.2366 24.9967 11.2317 24.9846 11.2269 24.9717C11.2149 24.9717 11.2036 24.9733 11.1916 24.9741C11.1587 24.9765 11.1258 24.9789 11.0928 24.983C11.0696 24.9854 11.0463 24.9886 11.0222 24.9918C11.0198 24.9918 11.0166 24.9918 11.0141 24.9918C10.9917 24.995 10.9692 24.9991 10.9459 25.0031C10.9114 25.0087 10.8776 25.016 10.8431 25.0232C10.8166 25.0289 10.7901 25.0353 10.7644 25.0418C10.7363 25.049 10.7082 25.0563 10.6809 25.0643C10.6793 25.0643 10.6785 25.0651 10.6777 25.0651C10.6504 25.0732 10.6231 25.0812 10.5966 25.0901C10.5685 25.0998 10.5412 25.1086 10.5139 25.1191C10.4585 25.1392 10.4047 25.161 10.3509 25.1843C10.2971 25.2077 10.2441 25.2327 10.1919 25.2609C10.1405 25.2875 10.0891 25.3165 10.0386 25.3471C10.0113 25.364 9.98396 25.3809 9.95746 25.3986C9.93497 25.4123 9.91249 25.4276 9.89081 25.4429C9.84263 25.4768 9.79526 25.5114 9.74869 25.5485C9.70292 25.5847 9.65796 25.6226 9.61379 25.6621C9.57043 25.7015 9.52788 25.7426 9.48693 25.7845C9.46685 25.8054 9.44597 25.8264 9.4267 25.8481C9.40663 25.8699 9.38736 25.8916 9.36809 25.9142C9.27334 26.0246 9.18742 26.1438 9.11275 26.2678C9.09107 26.3041 9.07019 26.3412 9.05092 26.379C9.03004 26.4185 9.00997 26.4588 8.9915 26.499C9.03085 26.354 9.06939 26.197 9.10954 26.0528C9.03888 26.1228 8.97223 26.1962 8.90799 26.2727C8.87668 26.3113 8.84536 26.35 8.81485 26.3903C8.79959 26.4104 8.78514 26.4298 8.76989 26.4507C8.74098 26.491 8.71207 26.5321 8.68477 26.574C8.529 26.8116 8.40374 27.0694 8.31702 27.3385C8.30578 27.3707 8.29614 27.4037 8.28651 27.4367C8.28249 27.4504 8.27928 27.4641 8.27526 27.477C8.26563 27.5133 8.25599 27.5495 8.24796 27.5858C8.19176 27.8315 8.16767 28.0828 8.18132 28.3333C8.16285 28.1988 8.0938 28.0675 8.01029 27.9604C8.0143 27.9797 8.01832 27.999 8.02153 28.0184C8.02795 28.0554 8.03117 28.0933 8.03358 28.1303C8.05606 28.5307 7.85692 28.9279 7.67385 29.296C7.63129 29.3822 7.58312 29.466 7.53414 29.5498C7.51005 29.5916 7.48596 29.6335 7.46187 29.6746C7.44983 29.6956 7.43858 29.7173 7.42654 29.7383C7.40406 29.7793 7.38238 29.8204 7.3615 29.8623C7.35187 29.8833 7.34223 29.9042 7.33259 29.926C7.30449 29.9888 7.28201 30.0508 7.26595 30.1145C7.24587 30.1942 7.23624 30.274 7.24266 30.3553C7.24347 30.3674 7.24427 30.3795 7.24668 30.3916C7.24668 30.3948 7.24668 30.3988 7.24668 30.4021C7.2531 30.4488 7.26515 30.4955 7.28281 30.5422L7.30048 30.5535L7.16638 30.7597C7.13507 30.7452 7.10134 30.7339 7.06682 30.7251C6.92469 30.6888 6.77454 30.7476 6.69585 30.8725C6.34737 31.4227 5.39988 32.909 4.98074 33.4721C4.50378 34.1141 4.05332 34.6265 3.62776 35.0107C2.74049 35.8147 1.5481 36.3907 0.0529951 36.7387L0 37.0005H8.6647L8.71689 36.7387C7.91554 36.5647 7.31573 36.3383 6.91586 36.058C6.51518 35.7793 6.31605 35.3773 6.31605 34.8537C6.31605 34.5886 6.38029 34.2591 6.50876 33.8652C6.69746 33.286 7.02506 32.5682 7.49158 31.7103C7.54859 31.6056 7.57509 31.4928 7.57509 31.3832C7.57509 31.2817 7.5526 31.1827 7.51005 31.0932L7.69392 30.8113L7.714 30.8242C7.78948 30.8201 7.85933 30.804 7.92437 30.7791C7.94043 30.7726 7.95649 30.7662 7.97255 30.7589C7.98138 30.7549 7.98941 30.7501 7.99824 30.746C8.0135 30.738 8.02956 30.7291 8.04482 30.7203C8.06328 30.709 8.08255 30.6961 8.10022 30.6832C8.13073 30.6614 8.16044 30.6381 8.18855 30.6131C8.22147 30.5841 8.25358 30.5527 8.2849 30.5197C8.30016 30.5027 8.31621 30.485 8.33227 30.4673C8.35636 30.4391 8.38045 30.4109 8.40454 30.3811C8.43184 30.3473 8.45914 30.3118 8.48724 30.2756C8.54506 30.1999 8.60207 30.1217 8.66149 30.0468C8.67995 30.0234 8.69842 30.0009 8.71689 29.9783C8.7731 29.9107 8.83011 29.8414 8.88792 29.7737C8.94654 29.706 9.00676 29.6392 9.06939 29.5755C9.27816 29.3629 9.51262 29.1872 9.79847 29.1309C9.68124 29.1011 9.55116 29.089 9.43313 29.1131C9.41948 29.1156 9.40663 29.1188 9.39378 29.1228C9.39298 29.1228 9.39137 29.1236 9.39057 29.1236H9.38896C9.43794 29.1051 9.48612 29.0849 9.5343 29.064C9.60576 29.0318 9.67562 28.9963 9.74467 28.9577C10.3597 28.6105 10.8415 28.0143 11.0952 27.3521C11.0077 27.423 10.9146 27.4972 10.8246 27.5688C10.7949 27.593 10.7652 27.6164 10.7363 27.6397C10.7604 27.6123 10.7837 27.585 10.8062 27.5568C10.8118 27.5495 10.8174 27.5423 10.823 27.535C10.8407 27.5133 10.8568 27.4915 10.8728 27.469C10.8793 27.4617 10.8841 27.4545 10.8897 27.4472C10.9098 27.419 10.929 27.39 10.9491 27.3602C10.9499 27.3586 10.9515 27.3562 10.9523 27.3546C10.9724 27.3231 10.9925 27.2909 11.0109 27.2579C11.0254 27.2345 11.039 27.2112 11.0511 27.187C11.0623 27.1685 11.072 27.1491 11.0816 27.1306C11.0952 27.104 11.1081 27.0774 11.1209 27.0509L11.1233 27.046C11.1233 27.046 11.1258 27.0412 11.1266 27.0388C11.1386 27.013 11.1506 26.9864 11.1619 26.959C11.1667 26.9486 11.1707 26.9389 11.1747 26.9284C11.1884 26.8962 11.2012 26.864 11.2125 26.8317C11.2157 26.8229 11.2189 26.8148 11.2221 26.806C11.2253 26.7979 11.2277 26.7907 11.2301 26.7826C11.2398 26.7552 11.2486 26.7278 11.2574 26.7004C11.2679 26.669 11.2767 26.6368 11.2855 26.6046C11.2904 26.5869 11.2952 26.5699 11.2992 26.553C11.3024 26.5401 11.3056 26.5264 11.3088 26.5135C11.3128 26.4982 11.3161 26.4829 11.3201 26.4668C11.3289 26.4265 11.3369 26.3871 11.3434 26.3468L11.3458 26.3323C11.3562 26.2727 11.3642 26.2123 11.3707 26.151C11.3723 26.1365 11.3739 26.1212 11.3755 26.1059C11.3771 26.0906 11.3779 26.0753 11.3787 26.06C11.3803 26.0358 11.3819 26.0117 11.3835 25.9867V25.9843C11.3851 25.9496 11.3859 25.9142 11.3859 25.8788V25.8562C11.3859 25.8216 11.3851 25.7869 11.3835 25.7523V25.7531ZM10.037 25.5638C9.74708 25.8159 9.48693 26.1011 9.2621 26.4145C9.4532 26.0785 9.72219 25.7861 10.037 25.5638ZM8.62535 27.0203C8.529 27.2668 8.43666 27.5382 8.36118 27.792C8.35957 27.7952 8.35877 27.7984 8.35797 27.8017C8.39731 27.5278 8.48885 27.2603 8.62535 27.0203ZM7.96211 29.1381C7.96211 29.1381 7.96051 29.1429 7.9589 29.1454C7.90751 29.2855 7.8224 29.4104 7.72283 29.5191C7.79188 29.3838 7.87459 29.2622 7.96211 29.1381ZM9.14888 28.4993C9.45561 28.0063 9.92213 27.2571 10.2224 26.7689C9.90125 27.3667 9.54153 27.9451 9.14888 28.4993ZM8.67594 29.0487C8.46637 29.3838 8.24796 29.7157 8.02233 30.0428C7.93883 30.1636 7.85532 30.2828 7.77101 30.4004C7.75415 30.4254 7.73568 30.4504 7.71801 30.4754C7.661 30.5551 7.60319 30.6349 7.54457 30.7138L7.45786 30.6574C7.50684 30.572 7.55662 30.4866 7.6064 30.4021C7.89225 29.9155 8.203 29.412 8.52017 28.9464C8.8293 28.4945 9.64752 27.2788 9.96308 26.81C10.2859 26.3371 10.6062 25.8618 10.9306 25.3898L10.9467 25.4002C10.2562 26.5272 9.37531 27.9185 8.67594 29.0487Z" fill="url(#paint1_linear_1005_6444)"/>
<path d="M108 21.615C107.288 20.6314 105.966 20.0836 104.767 20.2616C104.952 20.2028 105.149 20.1335 105.333 20.0755C104.274 19.8467 103.087 20.0336 102.213 20.6781C102.346 20.5629 102.439 20.3953 102.495 20.2278C102.073 20.6628 101.416 20.7361 100.814 20.8062C100.214 20.8755 99.5498 20.8102 99.1916 21.2984V21.2823H98.5613V21.2637L97.4902 21.0237C97.4902 21.0237 97.3336 21.1904 97.1015 21.3306H32.792V21.967H97.1561C97.3577 22.0991 97.4902 22.2401 97.4902 22.2401L98.5613 22.0008V21.9823H99.1916V21.967C99.5498 22.456 100.214 22.3537 100.814 22.423C101.416 22.4922 102.073 22.5664 102.495 23.0014C102.439 22.8346 102.346 22.6662 102.213 22.551C103.087 23.1955 104.274 23.3816 105.333 23.1544C105.149 23.0948 104.952 23.0263 104.767 22.9675C105.966 23.1448 107.288 22.5978 108 21.615ZM100.608 22.2119C100.8 22.1789 100.999 22.1756 101.189 22.22C100.994 22.2288 100.802 22.2312 100.608 22.2119ZM102.914 22.7347C103.245 22.833 103.609 22.9248 103.947 22.9965C103.591 22.9748 103.238 22.8854 102.914 22.7347ZM101.792 21.7495C101.064 21.7656 100.301 21.7471 99.573 21.7149C99.4542 21.7092 99.3354 21.7028 99.2157 21.6963C99.2077 21.6955 99.1997 21.6955 99.1916 21.6947V21.5634C99.1997 21.5626 99.2077 21.5626 99.2157 21.5618C100.073 21.5102 100.937 21.4933 101.792 21.5078C103.506 21.5457 105.632 21.5707 107.338 21.6166V21.6407C106.599 21.6601 105.859 21.673 105.12 21.6891C104.39 21.7012 102.498 21.7318 101.792 21.7495ZM106.519 22.4898C106.055 22.6767 105.549 22.7613 105.05 22.7323C105.548 22.7097 106.04 22.6268 106.519 22.4898Z" fill="url(#paint2_linear_1005_6444)"/>
<path d="M99.2155 21.5618V21.6963C99.2075 21.6955 99.1994 21.6955 99.1914 21.6947V21.5634C99.1994 21.5626 99.2075 21.5626 99.2155 21.5618Z" fill="white"/>
<path d="M57.7971 19.7028C58.0123 19.6528 58.1849 19.5698 58.3126 19.4538C58.4403 19.3378 58.5848 19.1421 58.7454 18.865L60.9872 15.0304C61.0322 14.9297 61.0571 14.8621 61.0627 14.8266C61.0675 14.8065 61.0699 14.7815 61.0699 14.7509C61.0699 14.6856 61.0426 14.6325 60.9872 14.5922C60.9318 14.5519 60.8467 14.5197 60.7311 14.4939L60.7383 14.4561H61.7613L62.4831 18.7731C62.5329 19.0647 62.5988 19.279 62.6791 19.4144C62.7594 19.5505 62.8999 19.6456 63.1006 19.7011L63.0934 19.739H61.453L61.4602 19.7011C61.6055 19.6762 61.7147 19.6335 61.7878 19.5731C61.86 19.5126 61.9066 19.4345 61.9267 19.3394C61.9419 19.2839 61.9492 19.2259 61.9492 19.1654C61.9492 19.08 61.9315 18.9495 61.8962 18.7731L61.7605 17.9579H59.4584L58.9317 18.8633C58.7759 19.13 58.6988 19.3185 58.6988 19.4297C58.6988 19.5054 58.7277 19.5634 58.7855 19.6037C58.8433 19.6439 58.9293 19.677 59.0449 19.702L59.0377 19.7398H57.7891L57.7963 19.702L57.7971 19.7028ZM59.5572 17.8008H61.7388L61.2426 14.9023L59.5427 17.808L59.558 17.8008H59.5572Z" fill="white"/>
<path d="M64.9895 14.9475C65.0096 14.8267 65.02 14.751 65.02 14.7211C65.02 14.6253 64.9887 14.5576 64.9261 14.5173C64.8635 14.4771 64.7567 14.4569 64.6065 14.4569L64.6218 14.3812L65.6825 14.0791L65.2087 16.3283C65.6303 16.0366 66.0558 15.8908 66.4878 15.8908C66.9198 15.8908 67.2699 16.0213 67.4964 16.2832C67.722 16.545 67.8352 16.8769 67.8352 17.2796C67.8352 17.4561 67.8175 17.622 67.7822 17.7775C67.7115 18.1247 67.5742 18.4542 67.3687 18.7659C67.1631 19.0777 66.9062 19.3306 66.5978 19.5248C66.2895 19.7189 65.9499 19.8156 65.5781 19.8156C65.1517 19.8156 64.7984 19.6722 64.5174 19.3854L64.0059 19.8156H63.9609L64.9919 14.9475H64.9895ZM66.6219 19.1478C66.9126 18.8336 67.1061 18.4493 67.2009 17.9966C67.241 17.7952 67.2611 17.6091 67.2611 17.4383C67.2611 17.0557 67.1792 16.7367 67.017 16.4797C66.854 16.2227 66.6243 16.0946 66.3289 16.0946C65.9378 16.0946 65.5468 16.2582 65.1549 16.5852L64.6129 19.1437C64.7229 19.3049 64.8627 19.4241 65.0305 19.5022C65.1983 19.5804 65.3653 19.619 65.5307 19.619C65.9667 19.619 66.3305 19.4619 66.6219 19.147V19.1478Z" fill="white"/>
<path d="M68.7778 19.4344C68.5297 19.1807 68.4053 18.827 68.4053 18.3743C68.4053 18.1882 68.4278 17.994 68.4727 17.7935C68.5578 17.3963 68.7112 17.0539 68.932 16.7672C69.1528 16.4804 69.4162 16.2629 69.7221 16.1146C70.028 15.9664 70.3492 15.8923 70.6849 15.8923C71.1064 15.8923 71.4348 16.0204 71.6701 16.2774L71.9487 14.949C71.9688 14.8281 71.9792 14.7524 71.9792 14.7226C71.9792 14.6267 71.9479 14.5591 71.8853 14.5188C71.8227 14.4785 71.7159 14.4584 71.5657 14.4584L71.581 14.3827L72.6417 14.0806L71.6484 18.7754C71.593 19.0421 71.5657 19.2185 71.5657 19.3039C71.5657 19.4151 71.593 19.5005 71.6484 19.5609C71.7038 19.6213 71.8018 19.6688 71.9415 19.7043L71.9343 19.7421H70.9338L71.0695 19.0856C70.9137 19.3168 70.7234 19.4972 70.4978 19.6253C70.2721 19.7534 70.0184 19.8179 69.7382 19.8179C69.3471 19.8179 69.0276 19.6906 68.7786 19.4368L68.7778 19.4344ZM70.4327 19.4763C70.6054 19.3804 70.7628 19.2435 70.9033 19.0647C71.0438 18.8858 71.1466 18.6788 71.2116 18.4419L71.6026 16.5851C71.5223 16.4038 71.4035 16.2733 71.2453 16.1928C71.0871 16.1122 70.9033 16.0719 70.6921 16.0719C70.2754 16.0719 69.9108 16.2306 69.5977 16.5472C69.2845 16.8646 69.0749 17.2666 68.9698 17.7548C68.9248 17.9658 68.9023 18.1672 68.9023 18.359C68.9023 18.7416 68.9898 19.0469 69.1657 19.2757C69.3415 19.5045 69.5945 19.6189 69.9253 19.6189C70.0907 19.6189 70.2601 19.5714 70.4335 19.4755L70.4327 19.4763Z" fill="white"/>
<path d="M73.2163 19.6382C73.0887 19.5198 73.0244 19.3426 73.0244 19.1057C73.0244 18.9293 73.0573 18.6957 73.1224 18.4041L73.4684 16.7583C73.4885 16.6375 73.499 16.5617 73.499 16.5319C73.499 16.4361 73.4676 16.3684 73.405 16.3281C73.3424 16.2878 73.2356 16.2677 73.0854 16.2677L73.1007 16.192L74.1614 15.8899L73.6347 18.3807C73.5793 18.6474 73.552 18.8641 73.552 19.03C73.552 19.2314 73.5929 19.3796 73.6764 19.4755C73.7591 19.5714 73.8932 19.6189 74.0787 19.6189C74.2794 19.6189 74.5275 19.5496 74.8238 19.4111C75.1193 19.2725 75.3682 19.0977 75.569 18.8866L76.0202 16.7583C76.0403 16.6375 76.0508 16.5617 76.0508 16.5319C76.0508 16.4361 76.0194 16.3684 75.9568 16.3281C75.8942 16.2878 75.7874 16.2677 75.6372 16.2677L75.6525 16.192L76.7132 15.8899L76.1037 18.773C76.0483 19.0397 76.021 19.2161 76.021 19.3015C76.021 19.4127 76.0483 19.4981 76.1037 19.5585C76.1592 19.6189 76.2571 19.6664 76.3968 19.7019L76.3896 19.7397H75.3891L75.5168 19.1509C75.2606 19.3522 74.9852 19.5134 74.6889 19.6342C74.3926 19.755 74.1221 19.8155 73.8763 19.8155C73.5656 19.8155 73.3456 19.7566 73.2179 19.6382H73.2163Z" fill="white"/>
<path d="M76.9967 19.7028C77.1621 19.6674 77.2865 19.615 77.3692 19.5441C77.4519 19.474 77.5122 19.3854 77.5499 19.2799C77.5876 19.1744 77.631 19.006 77.6816 18.774L78.4942 14.9475C78.5142 14.8267 78.5247 14.751 78.5247 14.7211C78.5247 14.6253 78.4934 14.5576 78.4307 14.5173C78.3681 14.4771 78.2613 14.4569 78.1112 14.4569L78.1264 14.3812L79.1871 14.0791L78.1939 18.774C78.1385 19.0406 78.1112 19.2171 78.1112 19.3024C78.1112 19.4136 78.1385 19.499 78.1939 19.5594C78.2493 19.6198 78.3464 19.6674 78.4869 19.7028L78.4797 19.7407H76.9902L76.9975 19.7028H76.9967Z" fill="white"/>
<path d="M81.0432 19.7028C81.2584 19.6528 81.431 19.5698 81.5587 19.4538C81.6864 19.3378 81.8309 19.1421 81.9915 18.865L84.2333 15.0304C84.2783 14.9297 84.3032 14.8621 84.3088 14.8266C84.3136 14.8065 84.316 14.7815 84.316 14.7509C84.316 14.6856 84.2887 14.6325 84.2333 14.5922C84.1779 14.5519 84.0928 14.5197 83.9772 14.4939L83.9844 14.4561H85.0074L85.7292 18.7731C85.779 19.0647 85.8449 19.279 85.9252 19.4144C86.0055 19.5505 86.146 19.6456 86.3467 19.7011L86.3395 19.739H84.699L84.7063 19.7011C84.8516 19.6762 84.9608 19.6335 85.0339 19.5731C85.1061 19.5126 85.1527 19.4345 85.1728 19.3394C85.188 19.2839 85.1953 19.2259 85.1953 19.1654C85.1953 19.08 85.1776 18.9495 85.1423 18.7731L85.0066 17.9579H82.7045L82.1778 18.8633C82.022 19.13 81.9449 19.3185 81.9449 19.4297C81.9449 19.5054 81.9738 19.5634 82.0316 19.6037C82.0894 19.6439 82.1754 19.677 82.291 19.702L82.2838 19.7398H81.0352L81.0424 19.702L81.0432 19.7028ZM82.8041 17.8008H84.9857L84.4895 14.9023L82.7896 17.808L82.8049 17.8008H82.8041Z" fill="white"/>
<path d="M89.7749 19.7558C89.762 19.7453 89.7331 19.7405 89.6881 19.7405H86.9043L90.1241 16.1323H88.9205C88.5841 16.1323 88.3223 16.2 88.1344 16.3361C87.9465 16.4722 87.7643 16.6962 87.5892 17.008H87.5218L88.026 15.8906H88.1087C88.124 15.9204 88.1376 15.9406 88.1497 15.951C88.1625 15.9615 88.1914 15.9663 88.2364 15.9663H90.8918L87.6791 19.5745H89.0104C89.3461 19.5745 89.607 19.5077 89.7925 19.3747C89.978 19.2418 90.1587 19.0163 90.3345 18.6997H90.402L89.8977 19.817H89.815C89.7998 19.7864 89.7861 19.767 89.7733 19.7566L89.7749 19.7558Z" fill="white"/>
<path d="M90.7935 19.7024C90.9589 19.667 91.0834 19.6146 91.1661 19.5437C91.2488 19.4737 91.309 19.385 91.3468 19.2795C91.3845 19.174 91.4279 19.0056 91.4785 18.7736L91.9072 16.7581C91.9273 16.6372 91.9377 16.5615 91.9377 16.5317C91.9377 16.4358 91.9064 16.3682 91.8438 16.3279C91.7812 16.2876 91.6744 16.2675 91.5242 16.2675L91.5395 16.1917L92.6002 15.8897L91.9907 18.7728C91.9353 19.0395 91.908 19.2159 91.908 19.3013C91.908 19.4124 91.9353 19.4978 91.9907 19.5582C92.0461 19.6187 92.1433 19.6662 92.2838 19.7016L92.2766 19.7395H90.7871L90.7943 19.7016L90.7935 19.7024ZM92.2156 15.1735C92.1553 15.1131 92.1256 15.0374 92.1256 14.9471C92.1256 14.8215 92.1754 14.7079 92.2758 14.6072C92.3762 14.5065 92.491 14.4565 92.6219 14.4565C92.7174 14.4565 92.7961 14.4872 92.8587 14.5468C92.9214 14.6072 92.9527 14.6829 92.9527 14.7731C92.9527 14.9036 92.8997 15.0188 92.7945 15.1163C92.6893 15.2146 92.5737 15.2637 92.4484 15.2637C92.3529 15.2637 92.2758 15.2339 92.2156 15.1735Z" fill="white"/>
<path d="M95.8237 19.7558C95.8108 19.7453 95.7819 19.7405 95.737 19.7405H92.9531L96.173 16.1323H94.9693C94.6329 16.1323 94.3711 16.2 94.1832 16.3361C93.9954 16.4722 93.8131 16.6962 93.638 17.008H93.5706L94.0749 15.8906H94.1576C94.1728 15.9204 94.1865 15.9406 94.1985 15.951C94.2114 15.9615 94.2403 15.9663 94.2852 15.9663H96.9406L93.728 19.5745H95.0593C95.3949 19.5745 95.6559 19.5077 95.8414 19.3747C96.0268 19.2418 96.2075 19.0163 96.3834 18.6997H96.4508L95.9465 19.817H95.8638C95.8486 19.7864 95.8349 19.767 95.8221 19.7566L95.8237 19.7558Z" fill="white"/>
<path d="M79.518 25.4347C79.4923 25.5668 79.3092 25.7166 79.1687 25.6739C79.147 25.6739 78.9431 25.5797 78.7937 25.6184C78.7472 25.6393 78.6998 25.6393 78.6404 25.661C78.5384 25.6949 78.3802 25.794 78.2823 25.8447C78.0269 25.9768 77.8093 26.1396 77.7282 26.2378C77.664 26.3232 77.5323 26.4433 77.4938 26.494C77.4127 26.5963 77.4769 26.5834 77.4978 26.5883C77.6174 26.6092 77.7362 26.5544 77.937 26.49C78.2052 26.3877 78.4485 26.2419 78.5633 26.1734C78.9214 25.9639 78.9343 25.9857 79.3687 25.6522C79.5349 25.5201 79.5686 25.4895 79.6417 25.421C79.7436 25.3227 79.885 25.1471 80.0809 24.8949C80.2896 24.5703 80.5201 24.2537 80.7369 23.9371C80.8943 23.7059 81.091 23.3732 81.3166 23.1936C81.4106 23.1597 81.4957 23.1847 81.5423 23.2403C81.6442 23.2919 81.6193 23.5013 81.5254 23.6294C81.5214 23.6503 81.474 23.6979 81.466 23.7019L81.4017 23.7486C81.2147 23.8896 81.1673 23.9669 81.0308 24.0862L81.0051 24.12C80.6213 24.6331 80.2383 25.0818 79.9444 25.6546C79.8464 25.86 79.5397 26.2443 79.7444 26.5351C79.8167 26.6334 80.0343 26.6293 80.1411 26.6076C80.333 26.5818 80.7465 26.5053 80.9979 26.3764C81.1215 26.3168 81.1552 26.3168 81.3214 26.2008C81.4025 26.1669 81.4194 26.2008 81.3728 26.2604C81.2957 26.3675 81.1472 26.44 80.9513 26.573C80.6148 26.7913 80.0223 27.0563 79.7709 26.9878C79.5325 26.9194 79.4048 26.6761 79.4345 26.3426C79.4433 26.2056 79.4811 26.0985 79.5236 25.9664C79.5574 25.8463 79.5959 25.7569 79.6433 25.6715C79.5838 25.7311 79.5156 25.7916 79.4385 25.8552C79.1615 26.0775 79.2257 25.9962 78.7399 26.3039C78.5777 26.3893 78.3521 26.573 78.169 26.6543C77.9257 26.7526 77.5427 26.9363 77.2786 26.9105C77.0569 26.8887 76.9253 26.7051 77.0272 26.5045C77.0995 26.3675 77.3211 26.1065 77.5259 25.9744C77.7089 25.8544 77.88 25.7521 78.0414 25.6667C78.1522 25.6111 78.5529 25.4572 78.8507 25.363C79.0555 25.2905 79.2514 25.2309 79.3791 25.2687C79.4602 25.2985 79.5325 25.371 79.5196 25.4315L79.518 25.4347Z" fill="white"/>
<path d="M81.8056 26.3023C81.7719 26.2983 81.7502 26.2854 81.7414 26.2636L81.6819 26.3152C81.6563 26.3361 81.6097 26.4006 81.584 26.4473C81.5583 26.49 81.5631 26.5287 81.5631 26.5415C81.5631 26.5802 81.6097 26.6012 81.6522 26.6229C81.7076 26.6487 81.8144 26.7002 82.2103 26.6616C82.3428 26.6527 82.4961 26.6616 82.8326 26.5842C83.165 26.5117 83.3441 26.4344 83.6042 26.353C83.7239 26.3144 83.8299 26.2846 83.9583 26.2419C84.1454 26.1863 84.2442 26.1267 84.261 26.1138C84.3036 26.08 84.4104 26.0751 84.3807 26.1565C84.359 26.208 84.2362 26.2507 84.1205 26.3015C83.9375 26.3869 83.7287 26.4771 83.6476 26.5021C83.43 26.5834 83.226 26.6471 82.9827 26.7244C82.7354 26.784 82.5692 26.8485 82.3524 26.8871C82.2801 26.9 82.1436 26.9298 82.0545 26.9387C81.7438 26.9685 81.6033 26.9685 81.4836 26.9604C81.4065 26.9564 81.3728 26.9435 81.3174 26.9218C81.258 26.9008 81.2532 26.8791 81.2106 26.8533C81.1335 26.8066 81.0958 26.7204 81.0958 26.6221C81.0958 26.5665 81.0918 26.4811 81.1383 26.4038C81.1681 26.3651 81.2235 26.2709 81.3174 26.1815C81.3985 26.1041 81.5133 26.0107 81.6201 25.9422C81.7823 25.8399 81.8329 25.8053 81.918 25.7585C81.9951 25.7158 82.1011 25.6812 82.3058 25.5829C82.672 25.4073 82.843 25.3646 83.0558 25.3267L83.222 25.2929C83.32 25.28 83.6869 25.272 83.7038 25.4427C83.7078 25.5024 83.6869 25.5499 83.597 25.6264C83.5247 25.686 83.4733 25.7336 83.3585 25.7932C83.1835 25.8874 82.8559 26.0155 82.5443 26.1307C82.4977 26.1476 82.4335 26.1694 82.3524 26.1903C82.297 26.2161 82.2376 26.2419 82.1862 26.2588C82.0923 26.2975 81.9052 26.3659 81.8072 26.3015L81.8056 26.3023ZM81.9766 26.063H81.9935C82.0272 26.063 82.0915 26.059 82.1597 26.0542C82.2111 26.0501 82.2151 26.0542 82.2537 26.0501L82.3476 26.0332L82.4456 26.0034C82.505 25.9865 82.5564 25.9696 82.5949 25.9519C82.782 25.8705 83.0807 25.7295 83.1787 25.653C83.2341 25.6103 83.1875 25.5845 83.1827 25.5805C83.1273 25.5596 83.0887 25.5596 83.0847 25.5596C83.0076 25.5684 82.9313 25.5684 82.7435 25.649C82.7097 25.6659 82.6415 25.7046 82.5989 25.7263L82.4367 25.8036C82.305 25.8681 82.1766 25.9406 82.0706 26.0091C82.0409 26.026 82.0063 26.0429 81.9766 26.0647V26.063Z" fill="white"/>
<path d="M84.6945 25.9432C84.8053 25.9094 84.9121 25.8787 84.9844 25.8618C85.2742 25.7893 85.487 25.7724 85.7255 25.7676C85.7295 25.7378 85.7383 25.708 85.7464 25.6862C85.7801 25.6049 85.768 25.575 85.8186 25.5066C85.9808 25.31 86.3044 25.0708 86.5598 25.1602C86.6063 25.1771 86.6706 25.2287 86.7003 25.2625C86.7131 25.3221 86.6874 25.4204 86.6537 25.4808C86.5943 25.5831 86.3679 25.6516 86.2827 25.5831L86.2402 25.5533C86.2065 25.5324 86.0651 25.5066 86.0611 25.5702C86.0571 25.6347 86.0483 25.6983 86.0571 25.7668C86.0828 25.7668 86.1085 25.7627 86.1342 25.7627C86.6585 25.7539 86.7268 25.7587 87.2206 25.8143C87.2888 25.8183 87.3956 25.8441 87.4807 25.8788C87.5361 25.8997 87.5747 25.9174 87.5747 25.9384C87.6004 25.9811 87.541 26.0197 87.5064 26.0455C87.4551 26.0793 87.3916 26.0922 87.3314 26.0544C87.2631 26.0157 87.2543 25.9819 87.1563 25.973C87.105 25.9561 86.9813 25.9174 86.8328 25.9045C86.6152 25.8876 86.3558 25.8876 86.2659 25.8876H86.074C86.0997 25.9948 86.1382 26.0971 86.1759 26.1865C86.2273 26.2976 86.2442 26.4177 86.1631 26.5458C86.1165 26.6142 86.0394 26.6867 85.9632 26.7335C85.8138 26.8446 85.5665 26.9389 85.2341 26.9727C84.9571 27.0066 84.676 26.9937 84.5267 26.9687C84.3942 26.9429 84.2753 26.8914 84.1726 26.8277C84.0618 26.7552 83.9855 26.6739 83.9807 26.5587C83.9758 26.4435 84.0618 26.3065 84.224 26.1784C84.3219 26.1099 84.3476 26.0882 84.4841 26.0157C84.5395 25.9899 84.5267 25.977 84.5989 25.9641L84.6929 25.9432H84.6945ZM85.7215 25.8924C85.5424 25.9013 85.3633 25.9182 85.1891 25.9649C85.0398 26.0036 84.8695 26.0165 84.729 26.0632C84.6776 26.0801 84.5885 26.1357 84.5459 26.1655C84.4817 26.2082 84.4608 26.2767 84.4263 26.3581C84.3837 26.4604 84.4472 26.5377 84.4857 26.5933C84.5451 26.6787 84.6094 26.6787 84.6648 26.7004C84.8141 26.756 84.9884 26.8374 85.1722 26.8156C85.3087 26.7939 85.3473 26.7729 85.4533 26.756C85.5344 26.752 85.6837 26.6964 85.7343 26.6231C85.7769 26.5675 85.8708 26.516 85.8114 26.3621C85.7648 26.2421 85.7263 26.0503 85.7223 25.8916L85.7215 25.8924Z" fill="white"/>
<path d="M87.286 26.084C87.3799 25.8915 87.461 25.7038 87.5542 25.5797C87.661 25.413 87.8224 25.3872 87.946 25.3703C88.0143 25.3614 88.1034 25.4299 88.1162 25.4943C88.146 25.5628 88.0905 25.6224 88.044 25.6699C87.9669 25.7513 87.8946 25.7851 87.8481 25.8198C87.8055 25.8665 87.7541 25.8971 87.7204 25.9269C87.6433 25.9994 87.6007 26.055 87.5502 26.1493C87.4779 26.2862 87.465 26.3627 87.4948 26.4828C87.5373 26.6705 87.7678 26.6455 87.9083 26.6197C88.1813 26.5601 88.4535 26.5214 88.7136 26.432C88.8927 26.3724 89.0718 26.287 89.2291 26.1968C89.3143 26.1799 89.3994 26.2056 89.3399 26.2612C88.9224 26.5351 88.3427 26.8598 87.8055 26.9323C87.5582 26.9661 87.2515 26.9323 87.1664 26.6713C87.1069 26.4876 87.1832 26.3039 87.286 26.0856V26.084ZM88.7899 23.8655C88.8413 23.8953 88.8879 23.9251 88.8116 24.0411C88.6751 24.2247 88.6325 24.2674 88.4704 24.3528C88.4615 24.3569 88.3001 24.4173 88.215 24.3359C88.1853 24.3061 88.2022 24.2465 88.1853 24.2118C88.1387 24.0709 88.3603 23.9895 88.5266 23.921C88.5908 23.8912 88.5731 23.9081 88.6117 23.8912C88.7056 23.8574 88.7562 23.8526 88.7907 23.8655H88.7899Z" fill="white"/>
<path d="M92.3215 26.6061C92.177 26.6786 92.083 26.7172 91.9891 26.7897L91.5804 27.1192C91.0946 27.9401 90.6554 28.4702 89.9568 29.2524C89.8291 29.4062 89.6886 29.5601 89.5392 29.714C89.5184 29.7309 88.8784 30.5002 88.6528 30.4148C88.5974 30.3979 88.5845 30.3423 88.5934 30.2738C88.6062 30.1498 88.6271 30.0298 88.6616 29.9532C88.7259 29.8082 88.7556 29.718 89.2622 29.0897C89.5264 28.765 90.0764 28.2221 90.404 27.9264C90.6128 27.7387 90.8256 27.5631 91.056 27.3835L91.2736 27.2038C91.4398 26.9259 91.5715 26.6399 91.6358 26.3402C91.6526 26.25 91.4655 26.1437 91.431 26.1525C91.3716 26.1695 91.3114 26.1654 91.2648 26.1735C91.1331 26.1952 91.056 26.2291 90.9155 26.2846C90.7324 26.366 90.4081 26.4812 90.1061 26.6053C89.8845 26.6947 89.7271 26.772 89.5224 26.8187C89.3353 26.8614 89.1603 26.9041 89.0494 26.8445C88.9475 26.7849 88.9386 26.6947 88.9386 26.6133C88.9427 26.515 89.0238 26.4208 89.1514 26.2838C89.3947 26.0357 89.85 25.732 90.3358 25.5403C90.7533 25.3776 90.9452 25.318 91.1668 25.2455C91.2608 25.2157 91.5418 25.2414 91.631 25.2495C91.6904 25.2624 91.6992 25.2793 91.7201 25.3308L91.7418 25.5274C91.7418 25.6257 91.7161 25.6684 91.6438 25.7071C91.5587 25.7457 91.4519 25.7667 91.3836 25.7071C91.3114 25.6386 91.1066 25.5105 90.9492 25.587C90.8087 25.6555 90.7365 25.6297 90.4594 25.7626C90.1358 25.9125 89.8845 26.0833 89.7006 26.2291C89.6236 26.2887 89.5939 26.3314 89.5433 26.3829C89.5176 26.4127 89.4967 26.4474 89.4838 26.4772C89.475 26.4981 89.467 26.5199 89.5352 26.5239C89.6244 26.5279 89.6974 26.515 89.7737 26.4981C89.8805 26.4772 89.9062 26.4643 90.0339 26.4297C90.2772 26.3652 90.4683 26.2887 90.6562 26.2073C90.8689 26.1179 91.0568 26.0494 91.3298 25.9592C91.5426 25.8778 91.9521 25.7836 92.0413 26.0317C92.0967 26.1896 91.9305 26.5191 91.7899 26.7583L91.9521 26.6641C92.0501 26.6045 92.1866 26.5191 92.4805 26.3862C92.5704 26.3346 92.6298 26.2919 92.7447 26.2492C92.8723 26.1976 92.9446 26.1469 93.0305 26.1251C93.0562 26.1211 93.0562 26.1163 93.1028 26.1163C93.1582 26.1163 93.2473 26.1936 93.2433 26.2573C93.2393 26.2959 93.2096 26.3386 93.1582 26.3684C93.0811 26.4111 93.0305 26.3773 92.9237 26.4152C92.8683 26.4321 92.8217 26.424 92.7366 26.4369C92.6852 26.4538 92.6258 26.4667 92.5744 26.4836C92.5447 26.4925 92.519 26.5054 92.4725 26.5263C92.4082 26.5561 92.3914 26.569 92.3231 26.6037L92.3215 26.6061ZM91.0352 27.5679L90.9798 27.6195C90.5197 28.0126 89.9439 28.6885 89.5569 29.1372C89.3016 29.4409 89.2671 29.5988 89.263 29.6463C89.6043 29.3128 89.463 29.5142 89.7657 29.1589C90.2852 28.5564 90.6305 28.1842 91.036 27.5687L91.0352 27.5679Z" fill="white"/>
<path d="M93.4513 25.5333C93.5026 25.4648 93.5878 25.3923 93.6769 25.3705C93.8214 25.3149 93.9451 25.3963 93.9322 25.5502C93.868 25.7467 93.5404 26.0545 93.4079 26.2252C93.3653 26.2768 93.3485 26.3195 93.3653 26.3235C93.3782 26.3235 93.3991 26.3453 93.4721 26.3106C93.5452 26.276 93.6472 26.2212 93.6769 26.2035C93.8134 26.1221 94.1715 25.8998 94.5208 25.6944C94.8572 25.5107 95.1302 25.3826 95.3005 25.4036C95.5815 25.4374 95.5735 25.6388 95.5261 25.8998C95.5004 26.0448 95.4835 26.1987 95.4795 26.2977C95.4795 26.5201 95.6795 26.6143 95.8762 26.6143C96.1235 26.6143 96.4262 26.4903 96.6173 26.396V26.392C96.6261 26.388 96.6382 26.388 96.647 26.388C96.7667 26.3791 96.7707 26.4564 96.6727 26.512C96.3315 26.6917 95.9268 26.9309 95.6241 26.9051C95.445 26.8923 95.2402 26.7295 95.2194 26.4903C95.2065 26.3574 95.2065 26.2462 95.2234 26.1052C95.2322 26.0198 95.2234 25.9554 95.2146 25.9087C95.2057 25.87 95.172 25.8273 95.1423 25.8063C95.1166 25.7894 95.0612 25.7548 94.9889 25.7677C94.8484 25.7935 94.6525 25.845 94.4268 25.9642C94.2052 26.0843 93.9876 26.251 93.8086 26.3622C93.6592 26.4564 93.4167 26.6699 93.2762 26.7424C93.1951 26.7811 93.1397 26.8278 93.0506 26.8447C93.012 26.8576 92.9823 26.8705 92.9486 26.8616C92.8338 26.8488 92.7864 26.8061 92.7439 26.7038C92.735 26.5926 92.8121 26.4814 92.9061 26.3533C92.9526 26.2889 93.008 26.2035 93.0506 26.1479C93.1317 26.0279 93.2168 25.9167 93.285 25.8362C93.4087 25.6525 93.379 25.6436 93.4384 25.5582C93.4472 25.5494 93.4472 25.5413 93.4513 25.5365V25.5324V25.5333Z" fill="white"/>
</g>
<defs>
<linearGradient id="paint0_linear_1005_6444" x1="24.6499" y1="1.28374" x2="58.6918" y2="9.71909" gradientUnits="userSpaceOnUse">
<stop offset="0.161582" stop-color="#F051A3"/>
<stop offset="0.539604" stop-color="#2067F4"/>
<stop offset="1" stop-color="#4CBAFF" stop-opacity="0"/>
</linearGradient>
<linearGradient id="paint1_linear_1005_6444" x1="7.78366" y1="25.1359" x2="16.8461" y2="41.6234" gradientUnits="userSpaceOnUse">
<stop offset="0.161582" stop-color="#F051A3"/>
<stop offset="0.539604" stop-color="#2067F4"/>
<stop offset="1" stop-color="#4CBAFF" stop-opacity="0"/>
</linearGradient>
<linearGradient id="paint2_linear_1005_6444" x1="34.1736" y1="20.0951" x2="34.9339" y2="32.918" gradientUnits="userSpaceOnUse">
<stop offset="0.161582" stop-color="#F051A3"/>
<stop offset="0.539604" stop-color="#2067F4"/>
<stop offset="1" stop-color="#4CBAFF" stop-opacity="0"/>
</linearGradient>
<clipPath id="clip0_1005_6444">
<rect width="108" height="37" fill="white"/>
</clipPath>
</defs>
</svg>
