<svg width="40" height="40" viewBox="0 0 40 40" fill="none" xmlns="http://www.w3.org/2000/svg">
<g clip-path="url(#clip0_999_30898)">
<path d="M30.625 16.25C30.1277 16.25 29.6508 16.4475 29.2992 16.7992C28.9475 17.1508 28.75 17.6277 28.75 18.125V19.375C28.5842 19.375 28.4253 19.4408 28.3081 19.5581C28.1908 19.6753 28.125 19.8342 28.125 20V22.5C28.125 22.6658 28.1908 22.8247 28.3081 22.9419C28.4253 23.0592 28.5842 23.125 28.75 23.125H32.5C32.6658 23.125 32.8247 23.0592 32.9419 22.9419C33.0592 22.8247 33.125 22.6658 33.125 22.5V20C33.125 19.8342 33.0592 19.6753 32.9419 19.5581C32.8247 19.4408 32.6658 19.375 32.5 19.375V18.125C32.5 17.6277 32.3025 17.1508 31.9508 16.7992C31.5992 16.4475 31.1223 16.25 30.625 16.25ZM31.25 19.375H30V18.125C30 17.9592 30.0658 17.8003 30.1831 17.6831C30.3003 17.5658 30.4592 17.5 30.625 17.5C30.7908 17.5 30.9497 17.5658 31.0669 17.6831C31.1842 17.8003 31.25 17.9592 31.25 18.125V19.375Z" fill="white"/>
<path d="M30.625 13.775L33.3288 15.1969L32.8125 12.1856L35 10.0538L31.9769 9.61438L30.625 6.875L29.2731 9.61438L26.25 10.0538L28.4375 12.1856L27.9212 15.1969L30.625 13.775Z" fill="white"/>
<path d="M11.25 15H10V17.5C10 17.6658 10.0658 17.8247 10.1831 17.9419C10.3003 18.0592 10.4592 18.125 10.625 18.125H18.75V30H16.76C16.6126 29.583 16.3225 29.2315 15.9409 29.0077C15.5594 28.7839 15.1111 28.7022 14.6752 28.777C14.2392 28.8518 13.8438 29.0783 13.5587 29.4165C13.2736 29.7546 13.1172 30.1827 13.1172 30.625C13.1172 31.0673 13.2736 31.4954 13.5587 31.8335C13.8438 32.1717 14.2392 32.3982 14.6752 32.473C15.1111 32.5478 15.5594 32.4661 15.9409 32.2423C16.3225 32.0185 16.6126 31.667 16.76 31.25H21.875V35C21.875 35.1658 21.9408 35.3247 22.0581 35.4419C22.1753 35.5592 22.3342 35.625 22.5 35.625H25.625V34.375H23.125V30.625C23.125 30.4592 23.0592 30.3003 22.9419 30.1831C22.8247 30.0658 22.6658 30 22.5 30H20V21.25H22.5V20H20V17.5C20 17.3342 19.9342 17.1753 19.8169 17.0581C19.6997 16.9408 19.5408 16.875 19.375 16.875H11.25V15ZM15 31.25C14.8764 31.25 14.7555 31.2133 14.6528 31.1447C14.55 31.076 14.4699 30.9784 14.4226 30.8642C14.3753 30.75 14.3629 30.6243 14.387 30.5031C14.4111 30.3818 14.4707 30.2705 14.5581 30.1831C14.6455 30.0956 14.7568 30.0361 14.8781 30.012C14.9993 29.9879 15.125 30.0003 15.2392 30.0476C15.3534 30.0949 15.451 30.175 15.5197 30.2778C15.5883 30.3806 15.625 30.5014 15.625 30.625C15.625 30.7908 15.5592 30.9497 15.4419 31.0669C15.3247 31.1842 15.1658 31.25 15 31.25Z" fill="white"/>
<path d="M7.80176 22.25L6.80176 21.5L6.48926 21.9156C6.31886 22.1446 6.22682 22.4224 6.22682 22.7078C6.22682 22.9932 6.31886 23.271 6.48926 23.5C6.49869 23.5119 6.50382 23.5267 6.50382 23.5419C6.50382 23.5571 6.49869 23.5718 6.48926 23.5837L6.17676 24.0006L7.17676 24.7506L7.48926 24.3337C7.6597 24.1049 7.75177 23.8272 7.75177 23.5419C7.75177 23.2565 7.6597 22.9788 7.48926 22.75C7.48028 22.738 7.47543 22.7234 7.47543 22.7084C7.47543 22.6935 7.48028 22.6789 7.48926 22.6669L7.80176 22.25Z" fill="white"/>
<path d="M10.3018 22.25L9.30176 21.5L8.98926 21.9156C8.81886 22.1446 8.72682 22.4224 8.72682 22.7078C8.72682 22.9932 8.81886 23.271 8.98926 23.5C8.99869 23.5119 9.00382 23.5267 9.00382 23.5419C9.00382 23.5571 8.99869 23.5718 8.98926 23.5837L8.67676 24.0006L9.67676 24.7506L9.98926 24.3337C10.1597 24.1049 10.2518 23.8272 10.2518 23.5419C10.2518 23.2565 10.1597 22.9788 9.98926 22.75C9.98028 22.738 9.97543 22.7234 9.97543 22.7084C9.97543 22.6935 9.98028 22.6789 9.98926 22.6669L10.3018 22.25Z" fill="white"/>
<path d="M7.8125 30.9375C9.19321 30.9375 10.3125 29.8182 10.3125 28.4375C10.3125 27.0568 9.19321 25.9375 7.8125 25.9375C6.43179 25.9375 5.3125 27.0568 5.3125 28.4375C5.3125 29.8182 6.43179 30.9375 7.8125 30.9375Z" fill="white"/>
<path d="M3.55166 35.0806V39.375H12.3017V33.125C12.3017 32.5448 12.0712 31.9884 11.661 31.5782C11.2507 31.1679 10.6943 30.9375 10.1142 30.9375H4.65666L3.60916 29.3662L5.38229 26.4106C5.40456 26.3734 5.41893 26.332 5.42452 26.289C5.43012 26.2459 5.4268 26.2023 5.41479 26.1606C5.40268 26.1193 5.38216 26.0809 5.35452 26.0479C5.32688 26.0148 5.29271 25.9879 5.25416 25.9687L3.37916 25.0312C3.30932 24.9963 3.22897 24.9889 3.1539 25.0103C3.07883 25.0317 3.01449 25.0804 2.97354 25.1468L0.856662 28.5843C0.711161 28.8205 0.631171 29.0912 0.62491 29.3686C0.618649 29.6459 0.686343 29.9199 0.821036 30.1625L3.55166 35.0806Z" fill="white"/>
<path d="M10.625 13.125C11.8611 13.125 13.0695 12.7584 14.0973 12.0717C15.1251 11.3849 15.9262 10.4088 16.3992 9.26678C16.8723 8.12474 16.9961 6.86807 16.7549 5.65569C16.5138 4.44331 15.9185 3.32966 15.0444 2.45559C14.1703 1.58151 13.0567 0.986252 11.8443 0.745095C10.6319 0.503937 9.37527 0.627708 8.23323 1.10076C7.09119 1.5738 6.11507 2.37488 5.42831 3.40269C4.74156 4.4305 4.375 5.63887 4.375 6.875C4.37682 8.53205 5.03588 10.1207 6.20759 11.2924C7.3793 12.4641 8.96796 13.1232 10.625 13.125ZM10.625 1.875C11.6139 1.875 12.5806 2.16825 13.4029 2.71765C14.2251 3.26706 14.866 4.04795 15.2444 4.96159C15.6228 5.87522 15.7219 6.88055 15.5289 7.85045C15.336 8.82036 14.8598 9.71127 14.1605 10.4105C13.4613 11.1098 12.5704 11.586 11.6005 11.7789C10.6305 11.9719 9.62521 11.8728 8.71158 11.4944C7.79795 11.116 7.01706 10.4751 6.46765 9.65285C5.91824 8.83061 5.625 7.86391 5.625 6.875C5.62649 5.54938 6.15375 4.27847 7.09111 3.34111C8.02847 2.40375 9.29937 1.87649 10.625 1.875Z" fill="white"/>
<path d="M33.125 26.875C31.8889 26.875 30.6805 27.2416 29.6527 27.9283C28.6249 28.6151 27.8238 29.5912 27.3508 30.7332C26.8777 31.8753 26.7539 33.1319 26.9951 34.3443C27.2363 35.5567 27.8315 36.6703 28.7056 37.5444C29.5797 38.4185 30.6933 39.0138 31.9057 39.2549C33.1181 39.4961 34.3747 39.3723 35.5168 38.8992C36.6588 38.4262 37.6349 37.6251 38.3217 36.5973C39.0084 35.5695 39.375 34.3611 39.375 33.125C39.3732 31.468 38.7141 29.8793 37.5424 28.7076C36.3707 27.5359 34.782 26.8768 33.125 26.875ZM33.125 38.125C32.1361 38.125 31.1694 37.8318 30.3472 37.2823C29.5249 36.7329 28.884 35.952 28.5056 35.0384C28.1272 34.1248 28.0282 33.1195 28.2211 32.1495C28.414 31.1796 28.8902 30.2887 29.5895 29.5895C30.2887 28.8902 31.1796 28.414 32.1496 28.2211C33.1195 28.0281 34.1248 28.1272 35.0384 28.5056C35.9521 28.884 36.7329 29.5249 37.2824 30.3471C37.8318 31.1694 38.125 32.1361 38.125 33.125C38.1235 34.4506 37.5963 35.7215 36.6589 36.6589C35.7215 37.5962 34.4506 38.1235 33.125 38.125Z" fill="white"/>
<path d="M12.5 8.75C12.8441 8.75142 13.1819 8.65814 13.4765 8.48037C13.7711 8.3026 14.0111 8.0472 14.1702 7.74212C14.3293 7.43705 14.4014 7.09408 14.3786 6.75076C14.3558 6.40744 14.239 6.07701 14.0409 5.79566C13.8429 5.51431 13.5712 5.29289 13.2557 5.15564C12.9402 5.01839 12.593 4.97061 12.2521 5.01753C11.9112 5.06444 11.5899 5.20425 11.3231 5.42163C11.0564 5.63902 10.8547 5.9256 10.74 6.25H8.75V5H7.5V6.25H6.875V7.5H10.74C10.8688 7.86432 11.107 8.17994 11.4221 8.4037C11.7371 8.62745 12.1136 8.7484 12.5 8.75ZM12.5 6.25C12.6236 6.25 12.7445 6.28666 12.8472 6.35533C12.95 6.42401 13.0301 6.52162 13.0774 6.63582C13.1247 6.75003 13.1371 6.87569 13.113 6.99693C13.0889 7.11817 13.0293 7.22953 12.9419 7.31694C12.8545 7.40435 12.7432 7.46388 12.6219 7.48799C12.5007 7.51211 12.375 7.49973 12.2608 7.45242C12.1466 7.40512 12.049 7.32501 11.9803 7.22223C11.9117 7.11945 11.875 6.99861 11.875 6.875C11.875 6.70924 11.9408 6.55027 12.0581 6.43306C12.1753 6.31585 12.3342 6.25 12.5 6.25Z" fill="white"/>
<path d="M34.8931 30.4731L33.125 32.2413L31.3569 30.4731L30.4731 31.3569L32.2413 33.125L30.4731 34.8931L31.3569 35.7769L33.125 34.0088L34.8931 35.7769L35.7769 34.8931L34.0088 33.125L35.7769 31.3569L34.8931 30.4731Z" fill="white"/>
<path d="M30.6249 4.375C28.6656 4.37458 26.7628 5.03181 25.2213 6.2414C23.6799 7.451 22.5891 9.14295 22.1236 11.0462C21.6581 12.9495 21.8449 14.9539 22.654 16.7384C23.4631 18.5229 24.8478 19.9842 26.5862 20.8881L27.1637 19.78C25.674 19.005 24.4874 17.7526 23.7941 16.2232C23.1008 14.6938 22.9407 12.976 23.3396 11.3448C23.7385 9.71368 24.6733 8.26358 25.9942 7.22678C27.3151 6.18998 28.9457 5.62645 30.6249 5.62645C32.3041 5.62645 33.9348 6.18998 35.2557 7.22678C36.5766 8.26358 37.5113 9.71368 37.9102 11.3448C38.3091 12.976 38.1491 14.6938 37.4558 16.2232C36.7624 17.7526 35.5759 19.005 34.0862 19.78L34.6637 20.8881C36.4021 19.9842 37.7867 18.5229 38.5959 16.7384C39.405 14.9539 39.5918 12.9495 39.1263 11.0462C38.6608 9.14295 37.5699 7.451 36.0285 6.2414C34.4871 5.03181 32.5843 4.37458 30.6249 4.375Z" fill="white"/>
</g>
<defs>
<clipPath id="clip0_999_30898">
<rect width="40" height="40" fill="white"/>
</clipPath>
</defs>
</svg>
