<svg width="40" height="40" viewBox="0 0 40 40" fill="none" xmlns="http://www.w3.org/2000/svg">
<g clip-path="url(#clip0_999_30925)">
<path fill-rule="evenodd" clip-rule="evenodd" d="M28.3239 27.3127C28.0001 27.6632 27.663 28.0004 27.3125 28.3242L28.7639 29.7756L29.7753 28.7642L28.3239 27.3127Z" fill="white"/>
<path d="M15.7142 0C7.03549 0 0 7.03549 0 15.7142C0 24.3929 7.03549 31.4284 15.7142 31.4284C24.3929 31.4284 31.4284 24.3929 31.4284 15.7142C31.4186 7.03958 24.3889 0.00980818 15.7142 0ZM15.7142 29.9999C7.82449 29.9999 1.42857 23.6039 1.42857 15.7142C1.42857 7.82449 7.82449 1.42857 15.7142 1.42857C23.6039 1.42857 29.9999 7.82449 29.9999 15.7142C29.9908 23.6002 23.6002 29.9908 15.7142 29.9999Z" fill="white"/>
<path d="M15.7143 10.7142C16.1088 10.7142 16.4286 10.3944 16.4286 9.99993C16.4286 9.60544 16.1088 9.28564 15.7143 9.28564C15.3198 9.28564 15 9.60544 15 9.99993C15 10.3944 15.3198 10.7142 15.7143 10.7142Z" fill="white"/>
<path d="M15.714 2.85718C8.61322 2.85718 2.85693 8.61346 2.85693 15.7143C2.85693 22.815 8.61322 28.5713 15.714 28.5713C22.8148 28.5713 28.5711 22.815 28.5711 15.7143C28.5628 8.61688 22.8113 2.86541 15.714 2.85718ZM17.8569 9.99997C17.8569 11.1834 16.8975 12.1428 15.714 12.1428C14.5305 12.1428 13.5712 11.1835 13.5712 9.99997C13.5712 8.81647 14.5305 7.85711 15.714 7.85711C16.8975 7.85711 17.8569 8.81654 17.8569 9.99997ZM9.28544 7.85711C8.97796 7.85711 8.70505 7.66036 8.60782 7.36868C8.51059 7.077 8.61091 6.75583 8.85691 6.57138C10.8319 5.08153 13.2401 4.27877 15.714 4.28568C16.1085 4.28568 16.4283 4.60547 16.4283 4.99997C16.4283 5.39447 16.1085 5.71425 15.714 5.71425C13.5493 5.70787 11.442 6.41031 9.71404 7.71427C9.59041 7.80702 9.44 7.85711 9.28544 7.85711ZM17.8569 23.5713H13.5712C13.1767 23.5713 12.8569 23.2515 12.8569 22.857C12.8569 22.4625 13.1767 22.1428 13.5712 22.1428H14.9997V15H14.2854C13.8909 15 13.5712 14.6802 13.5712 14.2857C13.5712 13.8912 13.8909 13.5714 14.2854 13.5714H15.714C16.1085 13.5714 16.4283 13.8912 16.4283 14.2857V22.1428H17.8569C18.2514 22.1428 18.5712 22.4625 18.5712 22.857C18.5712 23.2515 18.2513 23.5713 17.8569 23.5713Z" fill="white"/>
<path fill-rule="evenodd" clip-rule="evenodd" d="M28.7598 31.7935L31.7898 28.7635L32.7998 29.7735L29.7698 32.8035L28.7598 31.7935Z" fill="white"/>
<path fill-rule="evenodd" clip-rule="evenodd" d="M39.3726 36.342L35.8362 32.8063L32.8062 35.837L36.3411 39.372C37.1778 40.2091 38.5347 40.2094 39.3718 39.3727C40.209 38.536 40.2092 37.1791 39.3726 36.342Z" fill="white"/>
<path fill-rule="evenodd" clip-rule="evenodd" d="M33.8161 30.7863L30.7861 33.8162L31.2911 34.3212L31.7961 34.8269L34.8261 31.7962L33.8161 30.7863Z" fill="white"/>
</g>
<defs>
<clipPath id="clip0_999_30925">
<rect width="40" height="40" fill="white"/>
</clipPath>
</defs>
</svg>
