<svg width="40" height="40" viewBox="0 0 40 40" fill="none" xmlns="http://www.w3.org/2000/svg">
<g clip-path="url(#clip0_999_30887)">
<path d="M12.4138 12.4138H8.27588V16.5517H16.5517V8.27588H12.4138V12.4138Z" fill="white"/>
<path d="M0 25.5173C0 26.658 0.928276 27.5862 2.06897 27.5862H13.7931H26.2069H37.931C39.0717 27.5862 40 26.658 40 25.5173V20.6897H0V25.5173ZM35.1724 23.4483C35.1724 23.0676 35.4814 22.7587 35.8621 22.7587H37.2414C37.6221 22.7587 37.931 23.0676 37.931 23.4483V24.8276C37.931 25.2083 37.6221 25.5173 37.2414 25.5173H35.8621C35.4814 25.5173 35.1724 25.2083 35.1724 24.8276V23.4483ZM29.6552 23.4483C29.6552 23.0676 29.9641 22.7587 30.3448 22.7587H31.7241C32.1048 22.7587 32.4138 23.0676 32.4138 23.4483V24.8276C32.4138 25.2083 32.1048 25.5173 31.7241 25.5173H30.3448C29.9641 25.5173 29.6552 25.2083 29.6552 24.8276V23.4483ZM24.1379 23.4483C24.1379 23.0676 24.4469 22.7587 24.8276 22.7587H26.2069C26.5876 22.7587 26.8966 23.0676 26.8966 23.4483V24.8276C26.8966 25.2083 26.5876 25.5173 26.2069 25.5173H24.8276C24.4469 25.5173 24.1379 25.2083 24.1379 24.8276V23.4483Z" fill="white"/>
<path d="M2.75879 2.75867H11.0347V11.0345H2.75879V2.75867Z" fill="white"/>
<path d="M37.931 0H2.06897C0.928276 0 0 0.928276 0 2.06897V19.3103H40V2.06897C40 0.928276 39.0717 0 37.931 0ZM35.8621 2.06897H37.931V6.2069H35.8621V2.06897ZM33.1034 2.06897H34.4828V6.2069H33.1034V2.06897ZM30.3448 2.06897H31.7241V6.2069H30.3448V2.06897ZM27.5862 2.06897H28.9655V6.2069H27.5862V2.06897ZM24.8276 2.06897H26.2069V6.2069H24.8276V2.06897ZM21.3793 2.06897H23.4483V6.2069H21.3793V2.06897ZM20.6897 8.27586H34.4828V9.65517H20.6897V8.27586ZM20.6897 13.7931H24.8276V15.1724H20.6897V13.7931ZM17.931 17.931H6.89655V12.4138H1.37931V1.37931H12.4138V6.89655H17.931V17.931ZM38.6207 17.931H20.6897V16.5517H38.6207V17.931ZM38.6207 15.1724H26.2069V13.7931H38.6207V15.1724ZM38.6207 12.4138H20.6897V11.0345H38.6207V12.4138ZM38.6207 9.65517H35.8621V8.27586H38.6207V9.65517Z" fill="white"/>
<path d="M34.1329 28.9656H31.8812C31.4184 29.9607 30.8281 30.8835 30.1419 31.7242H24.8274V28.9656H15.1722V31.7242H9.85704C9.17084 30.8835 8.58118 29.9607 8.11773 28.9656H5.8667C6.24049 29.9214 6.71153 30.8407 7.27497 31.7076L7.49429 32.0456L6.70325 33.5601L9.88877 36.7442L11.4033 35.9532L11.7412 36.1732C13.3074 37.1932 15.0239 37.9049 16.8419 38.289L17.2364 38.3725L17.7474 40.0001H22.2515L22.7626 38.3732L23.157 38.2897C24.975 37.9049 26.6915 37.1932 28.2577 36.1739L28.5957 35.9539L30.1101 36.7449L33.2957 33.5607L32.5046 32.0463L32.7239 31.7083C33.2881 30.8407 33.7591 29.9214 34.1329 28.9656ZM19.9998 36.5518C16.5881 36.5518 13.4881 35.2414 11.1584 33.1035H28.8412C26.5115 35.2414 23.4115 36.5518 19.9998 36.5518Z" fill="white"/>
</g>
<defs>
<clipPath id="clip0_999_30887">
<rect width="40" height="40" fill="white"/>
</clipPath>
</defs>
</svg>
