<svg width="40" height="40" viewBox="0 0 40 40" fill="none" xmlns="http://www.w3.org/2000/svg">
<path d="M13.3552 20.0379C13.0787 19.3122 12.9209 18.5379 12.8951 17.7395L9.98018 18.3728C9.28524 16.9332 7.81084 15.9379 6.10799 15.9379C3.73842 15.9379 1.81104 17.8652 1.81104 20.2348C1.81104 22.6044 3.73842 24.5318 6.10799 24.5318C8.32585 24.5318 10.156 22.8432 10.3814 20.6841L13.3552 20.0379Z" fill="white"/>
<path d="M33.8919 15.9379C32.189 15.9379 30.7145 16.9332 30.0196 18.3728L27.1047 17.7395C27.0789 18.5371 26.9219 19.3114 26.6445 20.0379L29.6184 20.6841C29.8437 22.8432 31.6739 24.5318 33.8918 24.5318C36.2614 24.5318 38.1887 22.6044 38.1887 20.2348C38.1888 17.8652 36.2614 15.9379 33.8919 15.9379Z" fill="white"/>
<path d="M7.69491 11.719C8.56313 11.719 9.37135 11.4594 10.0478 11.015L15.7457 15.3559C15.4193 16.0009 15.2341 16.7292 15.2341 17.5003C15.2341 18.0354 15.3224 18.5565 15.4896 19.0464C16.1826 17.2307 17.9428 15.9377 19.9991 15.9377C21.2881 15.9377 22.4991 16.4393 23.4093 17.351C23.8991 17.8401 24.271 18.4167 24.5101 19.0456C24.6781 18.5558 24.7656 18.0346 24.7656 17.5003C24.7656 16.7292 24.5804 16.0009 24.254 15.3559L29.9519 11.015C30.6283 11.4594 31.4366 11.719 32.3048 11.719C34.6743 11.719 36.6017 9.7916 36.6017 7.42202C36.6017 5.05244 34.6743 3.12506 32.3048 3.12506C29.9352 3.12506 28.0078 5.05244 28.0078 7.42202C28.0078 8.07195 28.1536 8.68822 28.413 9.24096L22.7118 13.5844C22.2507 13.2641 21.731 13.0226 21.1717 12.8807V8.43016C22.9732 7.91875 24.2968 6.2602 24.2968 4.29696C24.2968 1.92738 22.3694 0 19.9998 0C17.6303 0 15.7029 1.92738 15.7029 4.29696C15.7029 6.2602 17.0265 7.91875 18.8279 8.43016V12.8807C18.2687 13.0226 17.749 13.2641 17.2879 13.5844L11.5867 9.24096C11.8461 8.68822 11.9919 8.07195 11.9919 7.42202C11.9919 5.05244 10.0645 3.12506 7.69491 3.12506C5.32533 3.12506 3.39795 5.05244 3.39795 7.42202C3.39795 9.7916 5.32533 11.719 7.69491 11.719Z" fill="white"/>
<path d="M26.59 29.3162L22.5571 28.424L22.479 28.4123V20.7614C22.479 20.077 22.2016 19.4566 21.7524 19.0082C21.304 18.559 20.6844 18.2816 19.9992 18.2816C18.6297 18.2816 17.5187 19.3918 17.5187 20.7614L17.5031 32.9194C17.5031 33.5671 16.9789 34.0913 16.3312 34.0913C15.6843 34.0913 15.1593 33.5671 15.1593 32.9194V28.3513C13.4327 29.3678 12.4132 31.4069 12.8475 33.535C13.053 35.1062 14.1523 37.9054 14.721 39.2734C14.9023 39.7102 15.3288 39.9945 15.8023 39.9945L26.3103 40C26.7884 40.0008 27.2189 39.7102 27.3978 39.2664C27.8533 38.1375 28.7283 35.9148 29.3197 34.103C30.0033 32.0131 28.7369 29.7904 26.59 29.3162Z" fill="white"/>
</svg>
