<svg width="40" height="40" viewBox="0 0 40 40" fill="none" xmlns="http://www.w3.org/2000/svg">
<path d="M13.75 6.13281C14.3972 6.13281 14.9219 5.60815 14.9219 4.96094C14.9219 4.31373 14.3972 3.78906 13.75 3.78906C13.1028 3.78906 12.5781 4.31373 12.5781 4.96094C12.5781 5.60815 13.1028 6.13281 13.75 6.13281Z" fill="white"/>
<path d="M36.4062 32.6953C37.0535 32.6953 37.5781 32.1706 37.5781 31.5234C37.5781 30.8762 37.0535 30.3516 36.4062 30.3516C35.759 30.3516 35.2344 30.8762 35.2344 31.5234C35.2344 32.1706 35.759 32.6953 36.4062 32.6953Z" fill="white"/>
<path d="M3.98438 6.13281C4.41585 6.13281 4.76562 5.78303 4.76562 5.35156C4.76562 4.92009 4.41585 4.57031 3.98438 4.57031C3.5529 4.57031 3.20312 4.92009 3.20312 5.35156C3.20312 5.78303 3.5529 6.13281 3.98438 6.13281Z" fill="white"/>
<path d="M19.6094 9.25781C20.0408 9.25781 20.3906 8.90803 20.3906 8.47656C20.3906 8.04509 20.0408 7.69531 19.6094 7.69531C19.1779 7.69531 18.8281 8.04509 18.8281 8.47656C18.8281 8.90803 19.1779 9.25781 19.6094 9.25781Z" fill="white"/>
<path d="M21.1719 31.9141C21.6033 31.9141 21.9531 31.5643 21.9531 31.1328C21.9531 30.7013 21.6033 30.3516 21.1719 30.3516C20.7404 30.3516 20.3906 30.7013 20.3906 31.1328C20.3906 31.5643 20.7404 31.9141 21.1719 31.9141Z" fill="white"/>
<path d="M29.7656 38.1641C30.1971 38.1641 30.5469 37.8143 30.5469 37.3828C30.5469 36.9513 30.1971 36.6016 29.7656 36.6016C29.3342 36.6016 28.9844 36.9513 28.9844 37.3828C28.9844 37.8143 29.3342 38.1641 29.7656 38.1641Z" fill="white"/>
<path d="M35.4731 1.83594H26.4019C25.0258 1.83594 23.9062 2.95547 23.9062 4.33148V5.74219H37.9688V4.33148C37.9688 2.95547 36.8492 1.83594 35.4731 1.83594Z" fill="white"/>
<path d="M23.9062 23.5591C23.9062 24.9352 25.0258 26.0547 26.4019 26.0547H35.4731C36.8492 26.0547 37.9688 24.9352 37.9688 23.5591V22.1484H23.9062V23.5591Z" fill="white"/>
<path d="M23.9062 14.3359H31.1663L30.2707 13.4402C30.1181 13.2877 30.1181 13.0404 30.2707 12.8879C30.4233 12.7353 30.6705 12.7353 30.8231 12.8879L32.3855 14.4502C32.5391 14.6039 32.5366 14.8523 32.3855 15.0029L30.8231 16.5652C30.6705 16.7178 30.4233 16.7179 30.2706 16.5652C30.118 16.4127 30.118 16.1654 30.2706 16.0129L31.1663 15.1172H23.9062V21.3672H37.9688V6.52344H23.9062V14.3359Z" fill="white"/>
<path d="M8.67188 29.1797C7.16414 29.1797 5.9375 27.953 5.9375 26.4453C5.9375 24.9376 7.16414 23.7109 8.67188 23.7109C10.047 23.7109 11.1877 24.7314 11.3779 26.0547H16.0938V18.2422H2.03125V33.0859H16.0938V26.8359H11.3779C11.1877 28.1592 10.047 29.1797 8.67188 29.1797Z" fill="white"/>
<path d="M16.0938 16.0502C16.0938 14.6742 14.9742 13.5547 13.5981 13.5547H4.52688C3.15078 13.5547 2.03125 14.6742 2.03125 16.0502V17.4609H16.0938V16.0502Z" fill="white"/>
<path d="M8.67188 24.4922C7.59492 24.4922 6.71875 25.3684 6.71875 26.4453C6.71875 27.5223 7.59492 28.3984 8.67188 28.3984C9.74883 28.3984 10.625 27.5223 10.625 26.4453C10.625 25.3684 9.74883 24.4922 8.67188 24.4922Z" fill="white"/>
<path d="M2.03125 35.2779C2.03125 36.6539 3.15078 37.7734 4.52688 37.7734H13.5981C14.9742 37.7734 16.0938 36.6539 16.0938 35.2779V33.8672H2.03125V35.2779Z" fill="white"/>
<path d="M22.2052 14.3359C20.5584 14.3359 19.2188 15.6755 19.2188 17.3223V23.8496C19.2188 25.0655 18.2295 26.0548 17.0136 26.0548H16.0938V26.836H17.0136C18.6603 26.836 20 25.4964 20 23.8496V17.3223C20 16.1065 20.9892 15.1172 22.2052 15.1172H23.9062V14.3359H22.2052Z" fill="white"/>
</svg>
