<svg width="40" height="40" viewBox="0 0 40 40" fill="none" xmlns="http://www.w3.org/2000/svg">
<path d="M27.7707 34.5635H25.6548L24.806 31.563H15.1946L14.3459 34.5635H12.2299C11.8115 34.5635 11.4648 34.9102 11.4648 35.3286V36.4344C11.4648 36.8528 11.8115 37.1995 12.2299 37.1995H27.7707C28.1891 37.1995 28.5358 36.8528 28.5358 36.4344V35.3286C28.5358 34.9102 28.1891 34.5635 27.7707 34.5635Z" fill="white"/>
<path d="M35.6066 2.80054H4.38759C2.77972 2.80054 1.4707 4.10955 1.4707 5.7174V22.872H38.5295V5.7174C38.5295 4.10955 37.2205 2.80054 35.6066 2.80054ZM4.96014 7.12334C4.96014 6.56757 5.4107 6.11705 5.96643 6.11705H16.3117C16.8674 6.11705 17.318 6.56757 17.318 7.12334V14.2849C17.318 14.8407 16.8674 15.2912 16.3117 15.2912H5.96643C5.4107 15.2912 4.96014 14.8407 4.96014 14.2849V7.12334ZM17.3179 21.2746H4.96014C4.63006 21.2746 4.36242 21.0073 4.36242 20.6769C4.36242 20.3465 4.63006 20.0792 4.96014 20.0792H17.3179C17.648 20.0792 17.9157 20.3465 17.9157 20.6769C17.9157 21.0073 17.648 21.2746 17.3179 21.2746ZM17.3179 18.356H4.96014C4.63006 18.356 4.36242 18.0887 4.36242 17.7583C4.36242 17.4279 4.63006 17.1606 4.96014 17.1606H17.3179C17.648 17.1606 17.9157 17.4279 17.9157 17.7583C17.9157 18.0887 17.648 18.356 17.3179 18.356ZM27.5007 19.6704C27.5007 20.2261 27.0501 20.6767 26.4944 20.6767H20.9678C20.4121 20.6767 19.9615 20.2262 19.9615 19.6704V14.4907C19.9615 13.935 20.4121 13.4844 20.9678 13.4844H26.4944C27.0501 13.4844 27.5007 13.935 27.5007 14.4907V19.6704ZM27.5007 9.63039C27.5007 10.1861 27.0501 10.6367 26.4944 10.6367H20.9678C20.4121 10.6367 19.9615 10.1861 19.9615 9.63039V7.12418C19.9615 6.56841 20.4121 6.11789 20.9678 6.11789H26.4944C27.0501 6.11789 27.5007 6.56841 27.5007 7.12418V9.63039ZM35.0398 19.6704C35.0398 20.2261 34.5892 20.6767 34.0335 20.6767H32.26C31.7043 20.6767 31.2538 20.2262 31.2538 19.6704V18.0868C31.2538 17.5311 31.7043 17.0805 32.26 17.0805H34.0335C34.5892 17.0805 35.0398 17.5311 35.0398 18.0868V19.6704ZM35.0398 12.9879C35.0398 13.5437 34.5892 13.9942 34.0335 13.9942H32.26C31.7043 13.9942 31.2538 13.5437 31.2538 12.9879V7.12418C31.2538 6.56841 31.7043 6.11789 32.26 6.11789H34.0335C34.5892 6.11789 35.0398 6.56841 35.0398 7.12418V12.9879Z" fill="white"/>
<path d="M1.4707 27.4506C1.4707 29.0585 2.77972 30.3675 4.38759 30.3675H35.6066C37.2205 30.3675 38.5295 29.0585 38.5295 27.4506V24.0675H1.4707V27.4506ZM19.9941 25.7352C20.813 25.7352 21.4765 26.4046 21.4765 27.2175C21.4765 28.0304 20.813 28.6939 19.9941 28.6939C19.1812 28.6939 18.5238 28.0304 18.5238 27.2175C18.5238 26.4046 19.1812 25.7352 19.9941 25.7352Z" fill="white"/>
</svg>
