<svg width="40" height="40" viewBox="0 0 40 40" fill="none" xmlns="http://www.w3.org/2000/svg">
<path d="M37.3335 1.33337H2.66683C2.31321 1.33337 1.97407 1.47385 1.72402 1.7239C1.47397 1.97395 1.3335 2.31309 1.3335 2.66671V5.33337H38.6668V2.66671C38.6668 2.31309 38.5264 1.97395 38.2763 1.7239C38.0263 1.47385 37.6871 1.33337 37.3335 1.33337ZM4.00016 4.00004H3.3335C3.15669 4.00004 2.98712 3.9298 2.86209 3.80478C2.73707 3.67975 2.66683 3.51019 2.66683 3.33337C2.66683 3.15656 2.73707 2.98699 2.86209 2.86197C2.98712 2.73695 3.15669 2.66671 3.3335 2.66671H4.00016C4.17697 2.66671 4.34654 2.73695 4.47157 2.86197C4.59659 2.98699 4.66683 3.15656 4.66683 3.33337C4.66683 3.51019 4.59659 3.67975 4.47157 3.80478C4.34654 3.9298 4.17697 4.00004 4.00016 4.00004ZM7.3335 4.00004H6.66683C6.49002 4.00004 6.32045 3.9298 6.19543 3.80478C6.0704 3.67975 6.00016 3.51019 6.00016 3.33337C6.00016 3.15656 6.0704 2.98699 6.19543 2.86197C6.32045 2.73695 6.49002 2.66671 6.66683 2.66671H7.3335C7.51031 2.66671 7.67988 2.73695 7.8049 2.86197C7.92992 2.98699 8.00016 3.15656 8.00016 3.33337C8.00016 3.51019 7.92992 3.67975 7.8049 3.80478C7.67988 3.9298 7.51031 4.00004 7.3335 4.00004ZM10.6668 4.00004H10.0002C9.82335 4.00004 9.65378 3.9298 9.52876 3.80478C9.40373 3.67975 9.3335 3.51019 9.3335 3.33337C9.3335 3.15656 9.40373 2.98699 9.52876 2.86197C9.65378 2.73695 9.82335 2.66671 10.0002 2.66671H10.6668C10.8436 2.66671 11.0132 2.73695 11.1382 2.86197C11.2633 2.98699 11.3335 3.15656 11.3335 3.33337C11.3335 3.51019 11.2633 3.67975 11.1382 3.80478C11.0132 3.9298 10.8436 4.00004 10.6668 4.00004ZM36.6668 4.00004H32.6668C32.49 4.00004 32.3204 3.9298 32.1954 3.80478C32.0704 3.67975 32.0002 3.51019 32.0002 3.33337C32.0002 3.15656 32.0704 2.98699 32.1954 2.86197C32.3204 2.73695 32.49 2.66671 32.6668 2.66671H36.6668C36.8436 2.66671 37.0132 2.73695 37.1382 2.86197C37.2633 2.98699 37.3335 3.15656 37.3335 3.33337C37.3335 3.51019 37.2633 3.67975 37.1382 3.80478C37.0132 3.9298 36.8436 4.00004 36.6668 4.00004Z" fill="white"/>
<path d="M2.66683 38.6666H37.3335C37.6871 38.6666 38.0263 38.5262 38.2763 38.2761C38.5264 38.0261 38.6668 37.6869 38.6668 37.3333V6.66663H1.3335V37.3333C1.3335 37.6869 1.47397 38.0261 1.72402 38.2761C1.97407 38.5262 2.31321 38.6666 2.66683 38.6666ZM21.0275 14.4833C20.7221 14.049 20.6018 13.5111 20.693 12.9881C20.7842 12.465 21.0795 11.9996 21.5138 11.6943C21.9482 11.3889 22.486 11.2686 23.0091 11.3598C23.5321 11.451 23.9975 11.7463 24.3028 12.1806L27.3335 16.5106L30.3608 12.184C30.6653 11.7489 31.1301 11.4526 31.653 11.3603C32.1759 11.268 32.7141 11.3872 33.1492 11.6916C33.5842 11.9961 33.8805 12.4609 33.9728 12.9838C34.0651 13.5067 33.946 14.0449 33.6415 14.48L29.7808 20L33.6395 25.5173C33.9444 25.952 34.0642 26.49 33.9724 27.013C33.8806 27.5359 33.5849 28.0011 33.1502 28.306C32.7155 28.6109 32.1775 28.7306 31.6545 28.6388C31.1315 28.5471 30.6664 28.2513 30.3615 27.8166L27.3335 23.4893L24.3062 27.816C23.9928 28.2378 23.53 28.5239 23.0126 28.6157C22.4952 28.7075 21.9622 28.5982 21.5228 28.31C21.0907 28.003 20.7964 27.5386 20.7033 27.0167C20.6103 26.4949 20.726 25.9573 21.0255 25.52L24.8922 20L21.0275 14.4833ZM6.00016 13.3333C6.00016 12.8029 6.21088 12.2942 6.58595 11.9191C6.96102 11.544 7.46973 11.3333 8.00016 11.3333C8.5306 11.3333 9.0393 11.544 9.41438 11.9191C9.78945 12.2942 10.0002 12.8029 10.0002 13.3333V22C10.0066 22.3707 10.089 22.7361 10.2423 23.0737C10.3956 23.4113 10.6166 23.7138 10.8916 23.9626C11.1666 24.2113 11.4897 24.4009 11.8409 24.5197C12.1921 24.6385 12.564 24.684 12.9335 24.6533C13.6074 24.5623 14.2243 24.2267 14.6668 23.7104C15.1094 23.1941 15.3466 22.5332 15.3335 21.8533V13.3333C15.3335 12.8029 15.5442 12.2942 15.9193 11.9191C16.2944 11.544 16.8031 11.3333 17.3335 11.3333C17.8639 11.3333 18.3726 11.544 18.7477 11.9191C19.1228 12.2942 19.3335 12.8029 19.3335 13.3333V22C19.3335 23.7681 18.6311 25.4638 17.3809 26.714C16.1306 27.9642 14.4349 28.6666 12.6668 28.6666C10.8987 28.6666 9.20303 27.9642 7.95278 26.714C6.70254 25.4638 6.00016 23.7681 6.00016 22V13.3333ZM7.3335 30H32.6668C33.1973 30 33.706 30.2107 34.081 30.5857C34.4561 30.9608 34.6668 31.4695 34.6668 32C34.6668 32.5304 34.4561 33.0391 34.081 33.4142C33.706 33.7892 33.1973 34 32.6668 34H7.3335C6.80306 34 6.29436 33.7892 5.91928 33.4142C5.54421 33.0391 5.3335 32.5304 5.3335 32C5.3335 31.4695 5.54421 30.9608 5.91928 30.5857C6.29436 30.2107 6.80306 30 7.3335 30Z" fill="white"/>
<path d="M23.2162 27.048L26.7876 21.9447C26.8491 21.8569 26.9308 21.7853 27.0258 21.7358C27.1209 21.6863 27.2264 21.6605 27.3336 21.6605C27.4407 21.6605 27.5463 21.6863 27.6413 21.7358C27.7364 21.7853 27.8181 21.8569 27.8796 21.9447L31.4536 27.0513C31.5598 27.1926 31.7161 27.2878 31.8904 27.3172C32.0647 27.3466 32.2436 27.308 32.3902 27.2093C32.534 27.1066 32.6311 26.951 32.6602 26.7768C32.6893 26.6025 32.6481 26.4239 32.5456 26.28L28.4209 20.382C28.3426 20.27 28.3006 20.1366 28.3006 20C28.3006 19.8633 28.3426 19.73 28.4209 19.618L32.5469 13.718C32.5972 13.646 32.6327 13.5648 32.6516 13.479C32.6705 13.3933 32.6723 13.3046 32.6569 13.2182C32.6415 13.1317 32.6092 13.0492 32.562 12.9752C32.5147 12.9012 32.4532 12.8372 32.3812 12.787C32.3092 12.7367 32.228 12.7012 32.1423 12.6823C32.0565 12.6634 31.9679 12.6616 31.8814 12.677C31.795 12.6924 31.7124 12.7246 31.6384 12.7719C31.5644 12.8192 31.5005 12.8806 31.4502 12.9527L27.8796 18.0553C27.815 18.1386 27.7323 18.2061 27.6376 18.2525C27.543 18.2989 27.439 18.323 27.3336 18.323C27.2282 18.323 27.1242 18.2989 27.0295 18.2525C26.9349 18.2061 26.8521 18.1386 26.7876 18.0553L23.2136 12.9487C23.1112 12.8039 22.9555 12.7058 22.7808 12.6759C22.6061 12.6459 22.4266 12.6866 22.2819 12.789C22.1372 12.8914 22.0391 13.047 22.0091 13.2218C21.9792 13.3965 22.0199 13.5759 22.1222 13.7207L26.2556 19.6173C26.3342 19.7294 26.3763 19.8631 26.3763 20C26.3763 20.1369 26.3342 20.2705 26.2556 20.3827L22.1222 26.2827C22.0714 26.3547 22.0353 26.4361 22.0161 26.5221C21.9969 26.6082 21.995 26.6972 22.0104 26.784C22.0259 26.8708 22.0584 26.9537 22.1061 27.0278C22.1537 27.102 22.2157 27.1659 22.2882 27.216C22.4362 27.3081 22.6131 27.3418 22.7846 27.3108C22.9561 27.2798 23.1099 27.1861 23.2162 27.048Z" fill="white"/>
<path d="M12.6668 27.3333C14.0808 27.3317 15.4365 26.7693 16.4363 25.7694C17.4362 24.7696 17.9986 23.414 18.0002 22V13.3333C18.0002 13.1565 17.9299 12.9869 17.8049 12.8619C17.6799 12.7369 17.5103 12.6666 17.3335 12.6666C17.1567 12.6666 16.9871 12.7369 16.8621 12.8619C16.7371 12.9869 16.6668 13.1565 16.6668 13.3333V21.8513C16.6782 22.8615 16.3176 23.8405 15.6538 24.602C14.9899 25.3635 14.0691 25.8542 13.0668 25.9806C12.5126 26.0263 11.9549 25.9578 11.4282 25.7794C10.9015 25.601 10.417 25.3165 10.0046 24.9434C9.5922 24.5703 9.26071 24.1166 9.03062 23.6103C8.80053 23.1041 8.67671 22.556 8.66683 22V13.3333C8.66683 13.1565 8.59659 12.9869 8.47157 12.8619C8.34654 12.7369 8.17697 12.6666 8.00016 12.6666C7.82335 12.6666 7.65378 12.7369 7.52876 12.8619C7.40373 12.9869 7.3335 13.1565 7.3335 13.3333V22C7.33508 23.414 7.8975 24.7696 8.89735 25.7694C9.8972 26.7693 11.2528 27.3317 12.6668 27.3333Z" fill="white"/>
<path d="M7.33317 32.6667H32.6665C32.8433 32.6667 33.0129 32.5965 33.1379 32.4714C33.2629 32.3464 33.3332 32.1769 33.3332 32C33.3332 31.8232 33.2629 31.6537 33.1379 31.5286C33.0129 31.4036 32.8433 31.3334 32.6665 31.3334H7.33317C7.15636 31.3334 6.98679 31.4036 6.86177 31.5286C6.73674 31.6537 6.6665 31.8232 6.6665 32C6.6665 32.1769 6.73674 32.3464 6.86177 32.4714C6.98679 32.5965 7.15636 32.6667 7.33317 32.6667Z" fill="white"/>
</svg>
