<svg width="40" height="40" viewBox="0 0 40 40" fill="none" xmlns="http://www.w3.org/2000/svg">
<path d="M13.3654 10.8827C14.3988 11.916 15.3981 12.8827 16.3521 13.782C17.5461 13.4889 18.7706 13.3383 20.0001 13.3334C20.6644 13.3353 21.3279 13.3814 21.9861 13.4714C21.2305 12.6154 20.4083 11.7153 19.5194 10.7713C18.5194 9.71335 17.5448 8.71002 16.5388 7.70468L15.7761 6.94202L12.6001 10.1147L13.3654 10.8827Z" fill="white"/>
<path d="M26.6354 10.882L27.4001 10.1147L24.2268 6.94202L23.4668 7.70468C22.6074 8.56402 21.7688 9.42802 20.9194 10.3187C22.0048 11.476 22.9861 12.5714 23.8528 13.5854C24.7454 12.7427 25.6734 11.844 26.6354 10.882Z" fill="white"/>
<path d="M10.9902 8.05331C10.9898 8.19481 11.0173 8.335 11.0713 8.46579C11.1254 8.59658 11.2047 8.71537 11.3049 8.81531L11.6589 9.16998L14.8302 5.99998L14.4756 5.64531C14.2731 5.44396 13.9991 5.33093 13.7136 5.33093C13.428 5.33093 13.1541 5.44396 12.9516 5.64531L11.3049 7.29265C11.2047 7.39227 11.1253 7.51082 11.0712 7.6414C11.0172 7.77198 10.9897 7.912 10.9902 8.05331Z" fill="white"/>
<path d="M30.2619 6.19992C30.5635 6.22679 30.8674 6.1873 31.1521 6.08422C31.4368 5.98114 31.6955 5.81698 31.9099 5.60325C32.2386 5.27459 32.2899 4.82325 32.3506 4.05392C32.3673 3.11347 32.6131 2.19129 33.0666 1.36725C32.8133 1.34725 32.5333 1.33325 32.2273 1.33325C31.0806 1.33325 29.6619 1.53792 28.7713 2.39992C28.4066 2.77157 28.1856 3.26051 28.1475 3.7798C28.1094 4.29908 28.2567 4.81504 28.5633 5.23592C28.7602 5.50957 29.0139 5.7374 29.3071 5.9038C29.6003 6.07019 29.926 6.17121 30.2619 6.19992Z" fill="white"/>
<path d="M28.6946 8.81604C28.8964 8.61381 29.0098 8.33976 29.0098 8.05404C29.0098 7.76831 28.8964 7.49426 28.6946 7.29203L27.0479 5.6447C26.8454 5.44335 26.5715 5.33032 26.2859 5.33032C26.0004 5.33032 25.7264 5.44335 25.5239 5.6447L25.1699 6.00004L28.3413 9.1707L28.6946 8.81604Z" fill="white"/>
<path d="M20.0002 31.3333C22.5775 31.3333 24.6668 29.244 24.6668 26.6667C24.6668 24.0893 22.5775 22 20.0002 22C17.4228 22 15.3335 24.0893 15.3335 26.6667C15.3335 29.244 17.4228 31.3333 20.0002 31.3333Z" fill="white"/>
<path d="M8.08986 5.60398C8.30405 5.81811 8.56269 5.98255 8.84747 6.08566C9.13226 6.18877 9.43622 6.22802 9.73786 6.20064C10.074 6.17153 10.3999 6.07 10.6931 5.90302C10.9864 5.73605 11.24 5.50758 11.4365 5.23331C11.7423 4.81265 11.8893 4.29725 11.8512 3.77857C11.8131 3.25988 11.5925 2.77146 11.2285 2.39997C10.1025 1.30997 8.13319 1.26664 6.93652 1.36731C7.38899 2.19184 7.63361 3.11425 7.64919 4.05464C7.70986 4.82397 7.76119 5.27531 8.08986 5.60398Z" fill="white"/>
<path d="M38.528 26.2666C36.4253 23.5446 28.8753 14.6666 20 14.6666C11.1247 14.6666 3.57466 23.5446 1.472 26.2666C1.38257 26.3808 1.33398 26.5216 1.33398 26.6666C1.33398 26.8116 1.38257 26.9525 1.472 27.0666C3.57466 29.7886 11.1247 38.6666 20 38.6666C28.8753 38.6666 36.4253 29.7886 38.528 27.0666C38.6174 26.9525 38.666 26.8116 38.666 26.6666C38.666 26.5216 38.6174 26.3808 38.528 26.2666ZM20 37.3333C17.8903 37.3333 15.828 36.7077 14.0739 35.5356C12.3198 34.3636 10.9526 32.6977 10.1453 30.7486C9.33795 28.7995 9.12671 26.6548 9.53829 24.5857C9.94986 22.5165 10.9658 20.6159 12.4575 19.1242C13.9493 17.6324 15.8499 16.6165 17.919 16.2049C19.9882 15.7933 22.1329 16.0046 24.082 16.8119C26.031 17.6192 27.6969 18.9864 28.869 20.7405C30.0411 22.4947 30.6667 24.557 30.6667 26.6666C30.6633 29.4946 29.5384 32.2057 27.5388 34.2054C25.5391 36.2051 22.8279 37.3299 20 37.3333Z" fill="white"/>
<path d="M19.9998 17.3333C18.1539 17.3333 16.3494 17.8806 14.8145 18.9062C13.2797 19.9318 12.0834 21.3894 11.377 23.0949C10.6705 24.8003 10.4857 26.6769 10.8458 28.4874C11.206 30.2979 12.0949 31.961 13.4002 33.2662C14.7055 34.5715 16.3685 35.4605 18.179 35.8206C19.9895 36.1807 21.8661 35.9959 23.5716 35.2895C25.277 34.583 26.7347 33.3868 27.7602 31.8519C28.7858 30.317 29.3332 28.5125 29.3332 26.6666C29.3305 24.192 28.3463 21.8196 26.5966 20.0698C24.8468 18.3201 22.4744 17.3359 19.9998 17.3333ZM19.9998 32.6666C18.8132 32.6666 17.6531 32.3147 16.6664 31.6554C15.6797 30.9961 14.9107 30.059 14.4566 28.9627C14.0024 27.8663 13.8836 26.6599 14.1151 25.496C14.3466 24.3322 14.9181 23.2631 15.7572 22.4239C16.5963 21.5848 17.6654 21.0134 18.8293 20.7819C19.9932 20.5504 21.1996 20.6692 22.2959 21.1233C23.3923 21.5774 24.3294 22.3465 24.9887 23.3332C25.6479 24.3199 25.9998 25.4799 25.9998 26.6666C25.9981 28.2573 25.3654 29.7824 24.2405 30.9073C23.1157 32.0321 21.5906 32.6648 19.9998 32.6666Z" fill="white"/>
</svg>
